<svg xmlns="http://www.w3.org/2000/svg" width="160" height="114" viewBox="0 0 160 114"><path fill="#EE252E" d="M.03 71.357h160.206v8.546H.03zM24.81 22.54l3.973 17.56H20.84l3.97-17.56zm-9.393-9.57L0 59.85h16.37l1.667-7.39h13.54l1.67 7.39H49.64L34.203 12.97H15.417zm60.94-.004L67.86 41.404l-8.49-28.438h-15.9l15.364 46.866 17.998.02L92.25 12.967H76.356zm24.815 0l-15.41 46.887h15.885l15.41-46.887H101.17zm34.203 9.57L139.35 40.1h-7.948l3.973-17.563zm-9.393-9.57L110.56 59.85l16.374.003 1.663-7.393h13.544l1.68 7.393h16.39l-15.44-46.887h-18.79zM105.362 0l-2.772 8.542h15.8L121.197 0h-15.834zM.005 85.606H160.24v28.54H.006z"/></svg>
