<svg xmlns="http://www.w3.org/2000/svg" width="230.691" height="44.506"><defs><style>.cls-1{fill:#1d1d1b}.cls-2{fill:#0097cd}</style></defs><g id="Group_13" data-name="Group 13" transform="translate(.004 .001)"><g id="Group_11" data-name="Group 11" transform="translate(0 -6.125)"><path id="Path_3" data-name="Path 3" class="cls-1" d="M61.937 15.35h5.192v12.572h10.8V15.35h5.194v25.222h-5.194v-8.213h-10.8v8.213h-5.193z"/><path id="Path_4" data-name="Path 4" class="cls-1" d="M104.077 40.906a13.781 13.781 0 01-4.062-.575 8.848 8.848 0 01-3.245-1.762 8.224 8.224 0 01-2.152-2.949 10.254 10.254 0 01-.779-4.173v-16.1h5.194v15.8q0 2.783 1.224 3.932a5.429 5.429 0 003.821 1.151 5.3 5.3 0 003.766-1.151q1.2-1.149 1.205-3.932v-15.8h5.193v16.1a10.261 10.261 0 01-.778 4.173 8.247 8.247 0 01-2.152 2.949 8.884 8.884 0 01-3.227 1.762 13.473 13.473 0 01-4.006.575"/><path id="Path_5" data-name="Path 5" class="cls-1" d="M132.68 32.559l-9.57-17.21h5.749s6.248 11.78 6.47 12.348c.194-.568 6.217-12.348 6.217-12.348h5.306l-8.978 16.841v8.384h-5.194z"/><path id="Path_6" data-name="Path 6" class="cls-1" d="M153.268 40.127l11.574-20.218h-9.534V15.35h17.549v.45l-11.54 20.214h10.907v4.563h-18.956z"/><path id="Path_7" data-name="Path 7" class="cls-1" d="M182.352 15.35h16.693v4.563h-11.5v8.013h10.128v4.451h-10.128v3.636h12.019v4.563h-17.212z"/><path id="Path_8" data-name="Path 8" class="cls-1" d="M214.8 25.85l.01 14.722h-4.86V15.124h.834s5.5 5.494 15.092 15.085l-.05-14.862h4.861v25.448h-.861z"/></g><g id="Group_10" data-name="Group 10"><path id="Path_9" data-name="Path 9" class="cls-2" d="M34.867 3.925l.055 9.622a.8.8 0 01-.624.781h-.012l-15.812 4.624a.8.8 0 01-1.017-.822l-.3-17.535a22.248 22.248 0 00.326 43.391l-.106-18.736a.8.8 0 01.623-.785h.01l15.812-4.616a.8.8 0 011.016.826l.34 19.677a22.242 22.242 0 00-.311-36.428"/><path id="Path_10" data-name="Path 10" class="cls-2" d="M19.031 17.128l14.3-4.174-.062-10.031A22.246 22.246 0 0018.74.277z"/><path id="Path_11" data-name="Path 11" class="cls-2" d="M33.267 21.671l-14.3 4.173.1 18.432a22.5 22.5 0 003.174.229A22.14 22.14 0 0033.6 41.389z"/></g></g></svg>