<?xml version="1.0" encoding="UTF-8"?> <svg xmlns="http://www.w3.org/2000/svg" width="324" height="104" viewBox="0 0 324 104" fill="none"><path d="M234 52.0888V59.911C234 60.9777 234 61.8666 234.178 62.5777C234.356 63.2888 234.535 63.9999 235.069 64.5333C235.426 65.0666 236.139 65.4221 236.851 65.5999C237.564 65.7777 238.455 65.9555 239.703 65.9555C240.238 65.9555 240.772 65.9555 241.485 65.7777C242.198 65.5999 242.733 65.5999 243.089 65.2444V61.6888C242.911 61.8666 242.376 62.0444 242.02 62.0444C241.485 62.0444 241.129 62.2221 240.772 62.2221C239.881 62.2221 239.168 62.0444 238.812 61.511C238.455 60.9777 238.277 60.2666 238.277 59.5555V52.0888H243.089V48.3555H238.277V42.311H234V48.3555H230.436V52.0888H234Z" fill="#818856"></path><path d="M171.446 65.6H175.723V48.3556H171.446V65.6ZM162 65.6H166.277V39.8223H162V65.6Z" fill="#1F403A"></path><path d="M143.109 82.4888C142.218 82.8443 141.327 83.1999 140.435 83.1999C139.901 83.1999 139.366 83.1999 139.01 83.0221C138.653 82.8443 138.297 82.6666 137.94 82.311C137.584 81.9554 137.406 81.5999 137.228 81.2443C137.049 80.8888 137.049 80.3554 137.049 79.8221C137.049 79.2888 137.049 78.7554 137.228 78.3999C137.406 78.0443 137.584 77.511 137.94 77.3332C138.297 76.9777 138.653 76.7999 139.01 76.6221C139.366 76.4443 139.901 76.4443 140.435 76.4443C140.97 76.4443 141.327 76.4443 141.861 76.6221C142.396 76.7999 142.752 76.9777 143.109 77.3332L142.218 78.2221C142.039 78.0443 141.683 77.8666 141.505 77.6888C141.327 77.511 140.97 77.511 140.614 77.511C140.257 77.511 139.901 77.511 139.723 77.6888C139.544 77.8666 139.188 78.0443 139.01 78.2221C138.831 78.3999 138.653 78.7554 138.475 78.9332C138.297 79.2888 138.297 79.4666 138.297 79.8221C138.297 80.1777 138.297 80.5332 138.475 80.8888C138.653 81.2443 138.653 81.4221 139.01 81.5999C139.188 81.7777 139.366 81.9554 139.723 82.1332C140.079 82.311 140.257 82.311 140.614 82.311C140.97 82.311 141.148 82.311 141.505 82.311C141.683 82.311 142.039 82.1332 142.218 82.1332V80.5332H140.792V79.4666H143.287V82.4888H143.109Z" fill="#1F403A"></path><path d="M144.891 76.4443H149.347V77.511H146.139V79.111H149.168V80.1777H146.139V81.9554H149.525V83.0221H144.891V76.4443Z" fill="#1F403A"></path><path d="M150.772 79.8221C150.772 79.2888 150.772 78.7554 150.95 78.3999C151.128 78.0443 151.307 77.511 151.663 77.3332C152.019 76.9777 152.376 76.7999 152.732 76.6221C153.089 76.4443 153.623 76.4443 154.158 76.4443C154.693 76.4443 155.227 76.4443 155.584 76.6221C155.94 76.7999 156.297 76.9777 156.653 77.3332C157.01 77.6888 157.188 78.0443 157.366 78.3999C157.544 78.7554 157.544 79.2888 157.544 79.8221C157.544 80.3554 157.544 80.8888 157.366 81.2443C157.188 81.5999 157.01 81.9554 156.653 82.311C156.297 82.6666 155.94 82.8443 155.584 83.0221C155.227 83.1999 154.693 83.1999 154.158 83.1999C153.623 83.1999 153.089 83.1999 152.732 83.0221C152.376 82.8443 152.019 82.6666 151.663 82.311C151.307 81.9554 151.128 81.5999 150.95 81.2443C150.772 80.711 150.772 80.1777 150.772 79.8221ZM151.841 79.6443C151.841 79.9999 151.841 80.3554 152.02 80.711C152.198 81.0666 152.198 81.2443 152.554 81.4221C152.732 81.5999 152.911 81.7777 153.267 81.9554C153.623 82.1332 153.802 82.1332 154.158 82.1332C154.515 82.1332 154.871 82.1332 155.049 81.9554C155.227 81.7777 155.584 81.5999 155.762 81.4221C155.94 81.2443 156.119 80.8888 156.297 80.711C156.475 80.5332 156.475 79.9999 156.475 79.6443C156.475 79.2888 156.475 78.9332 156.297 78.7554C156.119 78.3999 156.119 78.2221 155.762 78.0443C155.584 77.8666 155.406 77.6888 155.049 77.511C154.693 77.3332 154.515 77.3332 154.158 77.3332C153.802 77.3332 153.445 77.3332 153.267 77.511C153.089 77.6888 152.732 77.8666 152.554 78.0443C152.376 78.2221 152.198 78.5777 152.02 78.7554C152.02 79.111 151.841 79.2888 151.841 79.6443Z" fill="#1F403A"></path><path d="M160.574 77.511H158.614V76.4443H163.782V77.511H161.822V83.0221H160.574V77.511Z" fill="#1F403A"></path><path d="M165.029 76.4443H166.277V79.111H169.307V76.4443H170.554V83.0221H169.307V80.1777H166.277V83.0221H165.029V76.4443Z" fill="#1F403A"></path><path d="M172.336 76.4443H176.792V77.511H173.584V79.111H176.435V80.1777H173.406V81.9554H176.792V83.0221H172.158V76.4443H172.336Z" fill="#1F403A"></path><path d="M178.396 76.4443H180.713C181.069 76.4443 181.426 76.4443 181.604 76.4443C181.96 76.4443 182.139 76.6221 182.317 76.7999C182.495 76.9777 182.673 77.1554 182.851 77.3332C183.03 77.511 183.03 77.8666 183.03 78.2221C183.03 78.7554 182.851 79.111 182.673 79.4666C182.495 79.8221 181.96 79.9999 181.604 79.9999L183.386 82.8443H181.96L180.356 79.9999H179.465V82.8443H178.218V76.4443H178.396ZM180.356 79.2888C180.535 79.2888 180.713 79.2888 180.891 79.2888C181.069 79.2888 181.247 79.2888 181.426 79.111C181.604 79.111 181.604 78.9332 181.782 78.7554C181.96 78.5777 181.96 78.3999 181.96 78.2221C181.96 78.0443 181.96 77.8666 181.782 77.6888C181.604 77.511 181.604 77.511 181.426 77.511C181.247 77.511 181.069 77.3332 181.069 77.3332C180.891 77.3332 180.713 77.3332 180.535 77.3332H179.465V79.111H180.356V79.2888Z" fill="#1F403A"></path><path d="M184.633 76.4443H186.415L188.198 81.0666L189.98 76.4443H191.762V83.0221H190.693V77.511L188.732 83.0221H187.841L185.881 77.511V83.0221H184.812V76.4443H184.633Z" fill="#1F403A"></path><path d="M193.544 76.4443H194.792V83.0221H193.544V76.4443Z" fill="#1F403A"></path><path d="M199.782 77.8666C199.604 77.6888 199.426 77.511 199.247 77.511C199.069 77.511 198.891 77.3332 198.535 77.3332C198.356 77.3332 198.178 77.3332 198.178 77.3332C198 77.3332 198 77.3332 197.822 77.511C197.643 77.511 197.643 77.6888 197.643 77.8666C197.643 78.0443 197.465 78.0443 197.465 78.2221C197.465 78.3999 197.465 78.5777 197.643 78.7554C197.822 78.9332 198 78.9332 198.178 79.111C198.356 79.111 198.713 79.2888 198.891 79.2888C199.247 79.2888 199.426 79.4666 199.604 79.6443C199.782 79.8221 199.96 79.9999 200.139 80.1777C200.317 80.3554 200.317 80.711 200.317 81.0666C200.317 81.4221 200.317 81.7777 200.139 81.9554C199.96 82.1332 199.782 82.4888 199.604 82.6666C199.426 82.8443 199.069 83.0221 198.891 83.0221C198.535 83.0221 198.356 83.1999 198 83.1999C197.643 83.1999 197.109 83.1999 196.752 83.0221C196.396 82.8443 196.04 82.6666 195.683 82.311L196.574 81.4221C196.752 81.5999 196.931 81.7777 197.109 81.9554C197.287 82.1332 197.643 82.1332 197.822 82.1332C198 82.1332 198.178 82.1332 198.178 82.1332C198.356 82.1332 198.356 81.9554 198.535 81.9554C198.713 81.9554 198.713 81.7777 198.891 81.5999C198.891 81.4221 199.069 81.4221 199.069 81.2443C199.069 81.0666 199.069 80.8888 198.891 80.711C198.713 80.5332 198.535 80.5332 198.356 80.3554C198.178 80.1777 197.822 80.1777 197.643 80.1777C197.287 80.1777 197.109 79.9999 196.931 79.8221C196.752 79.6443 196.574 79.4666 196.396 79.2888C196.218 79.111 196.218 78.7554 196.218 78.3999C196.218 78.0443 196.218 77.6888 196.396 77.511C196.574 77.3332 196.752 76.9777 196.931 76.9777C197.109 76.7999 197.465 76.6221 197.643 76.6221C198 76.6221 198.178 76.4443 198.535 76.4443C198.891 76.4443 199.247 76.4443 199.604 76.6221C199.96 76.7999 200.139 76.9777 200.495 77.1554L199.782 77.8666Z" fill="#1F403A"></path><path d="M206.911 78.0443C206.732 77.8665 206.376 77.6887 206.198 77.511C206.019 77.3332 205.663 77.3332 205.485 77.3332C205.128 77.3332 204.772 77.3332 204.594 77.511C204.237 77.6887 204.059 77.8665 203.881 78.0443C203.703 78.2221 203.524 78.5776 203.346 78.7554C203.168 79.111 203.168 79.2887 203.168 79.6443C203.168 79.9998 203.168 80.3554 203.346 80.711C203.524 81.0665 203.524 81.2443 203.881 81.4221C204.237 81.5998 204.237 81.7776 204.594 81.9554C204.95 82.1332 205.128 82.1332 205.485 82.1332C205.841 82.1332 206.019 82.1332 206.198 81.9554C206.376 81.7776 206.732 81.5998 206.911 81.4221L207.802 82.1332C207.445 82.4887 207.089 82.8443 206.732 83.0221C206.376 83.1999 205.841 83.3776 205.307 83.3776C204.772 83.3776 204.237 83.3776 203.881 83.1999C203.524 83.0221 203.168 82.8443 202.811 82.4887C202.455 82.1332 202.277 81.7776 202.099 81.4221C201.92 81.0665 201.92 80.5332 201.92 79.9999C201.92 79.4665 201.92 78.9332 202.099 78.5776C202.277 78.2221 202.455 77.6887 202.811 77.511C203.168 77.1554 203.524 76.9776 203.881 76.7999C204.237 76.6221 204.772 76.6221 205.307 76.6221C205.841 76.6221 206.198 76.6221 206.554 76.7999C206.911 76.9776 207.267 77.1554 207.623 77.6887L206.911 78.0443Z" fill="#1F403A"></path><path d="M209.049 76.4443H210.297V79.111H213.327V76.4443H214.574V83.0221H213.327V80.1777H210.297V83.0221H209.049V76.4443Z" fill="#1F403A"></path><path d="M216.356 76.4443H220.812V77.511H217.604V79.111H220.634V80.1777H217.604V81.9554H220.99V83.0221H216.356V76.4443Z" fill="#1F403A"></path><path d="M224.911 76.4443H226.158L227.406 81.2443L228.831 76.4443H230.079L231.505 81.2443L232.752 76.4443H234L232.039 83.0221H230.97L229.366 78.0443L227.762 83.0221H226.693L224.911 76.4443Z" fill="#1F403A"></path><path d="M237.03 76.4443H238.099L240.95 83.0221H239.525L238.99 81.4221H236.139L235.604 83.0221H234.356L237.03 76.4443ZM238.634 80.5332L237.564 77.8666L236.495 80.5332H238.634Z" fill="#1F403A"></path><path d="M242.02 76.4443H244.336C244.693 76.4443 245.049 76.4443 245.227 76.4443C245.584 76.4443 245.762 76.6221 245.94 76.7999C246.119 76.9777 246.297 77.1554 246.475 77.3332C246.653 77.511 246.653 77.8666 246.653 78.2221C246.653 78.7554 246.475 79.111 246.297 79.4666C246.119 79.8221 245.584 79.9999 245.227 79.9999L247.01 82.8443H245.584L243.98 79.9999H243.089V82.8443H241.841V76.4443H242.02ZM244.158 79.2888C244.336 79.2888 244.515 79.2888 244.693 79.2888C244.871 79.2888 245.049 79.2888 245.227 79.111C245.406 78.9332 245.406 78.9332 245.584 78.7554C245.762 78.5777 245.762 78.3999 245.762 78.2221C245.762 78.0443 245.762 77.8666 245.584 77.6888C245.584 77.511 245.406 77.511 245.227 77.511C245.049 77.511 244.871 77.3332 244.871 77.3332C244.871 77.3332 244.515 77.3332 244.336 77.3332H243.267V79.111H244.158V79.2888Z" fill="#1F403A"></path><path d="M248.436 76.4443H250.218L252 81.0666L253.782 76.4443H255.564V83.0221H254.495V77.511L252.535 83.0221H251.643L249.683 77.511V83.0221H248.614V76.4443H248.436Z" fill="#1F403A"></path><path d="M258.772 77.511H256.633V76.4443H261.802V77.511H259.841V83.0221H258.594V77.511H258.772Z" fill="#1F403A"></path><path d="M263.049 76.4443H267.505V77.511H264.297V79.111H267.327V80.1777H264.297V81.9554H267.683V83.0221H263.049V76.4443Z" fill="#1F403A"></path><path d="M269.287 76.4443H271.426C271.782 76.4443 272.139 76.4443 272.317 76.6221C272.673 76.6221 272.851 76.7999 273.03 76.9777C273.208 77.1554 273.386 77.3332 273.564 77.511C273.743 77.6888 273.743 78.0443 273.743 78.3999C273.743 78.7554 273.743 79.111 273.564 79.4666C273.386 79.6443 273.208 79.9999 273.03 79.9999C272.851 80.1777 272.495 80.1777 272.139 80.3554C271.782 80.3554 271.426 80.3554 271.069 80.3554H270.178V83.0221H268.931V76.4443H269.287ZM271.069 79.2888C271.248 79.2888 271.426 79.2888 271.604 79.2888C271.782 79.2888 271.96 79.2888 272.139 79.111C272.317 78.9332 272.495 78.9332 272.495 78.7554C272.673 78.5777 272.673 78.3999 272.673 78.2221C272.673 78.0443 272.673 77.8666 272.495 77.6888C272.317 77.511 272.317 77.511 272.139 77.3332C271.96 77.3332 271.782 77.1554 271.604 77.1554C271.426 77.1554 271.248 77.1554 271.069 77.1554H270.178V78.9332H271.069V79.2888Z" fill="#1F403A"></path><path d="M274.99 79.8221C274.99 79.2888 274.99 78.7554 275.168 78.3999C275.346 78.0443 275.524 77.511 275.881 77.3332C276.237 76.9777 276.594 76.7999 276.95 76.6221C277.307 76.4443 277.841 76.4443 278.376 76.4443C278.911 76.4443 279.445 76.4443 279.802 76.6221C280.158 76.7999 280.693 76.9777 280.871 77.3332C281.227 77.6888 281.406 78.0443 281.584 78.3999C281.762 78.7554 281.762 79.2888 281.762 79.8221C281.762 80.3554 281.762 80.8888 281.584 81.2443C281.406 81.5999 281.227 81.9554 280.871 82.311C280.515 82.6666 280.158 82.8443 279.802 83.0221C279.445 83.1999 278.911 83.1999 278.376 83.1999C277.841 83.1999 277.485 83.1999 276.95 83.0221C276.594 82.8443 276.237 82.6666 275.881 82.311C275.524 81.9554 275.346 81.5999 275.168 81.2443C274.99 80.8888 274.99 80.1777 274.99 79.8221ZM276.237 79.6443C276.237 79.9999 276.237 80.3554 276.415 80.711C276.594 81.0666 276.594 81.2443 276.95 81.4221C277.128 81.5999 277.307 81.7777 277.663 81.9554C278.019 82.1332 278.198 82.1332 278.554 82.1332C278.911 82.1332 279.267 82.1332 279.445 81.9554C279.802 81.7777 279.98 81.5999 280.158 81.4221C280.336 81.2443 280.514 80.8888 280.693 80.711C280.871 80.3554 280.871 79.9999 280.871 79.6443C280.871 79.2888 280.871 78.9332 280.693 78.7554C280.514 78.3999 280.514 78.2221 280.158 78.0443C279.802 77.8666 279.802 77.6888 279.445 77.511C279.089 77.3332 278.911 77.3332 278.554 77.3332C278.198 77.3332 277.841 77.3332 277.663 77.511C277.307 77.6888 277.128 77.8666 276.95 78.0443C276.772 78.2221 276.594 78.5777 276.415 78.7554C276.237 79.111 276.237 79.2888 276.237 79.6443Z" fill="#1F403A"></path><path d="M283.544 76.4443H285.327L287.109 81.0666L288.891 76.4443H290.673V83.0221H289.604V77.511L287.643 83.0221H286.752L284.792 77.511V83.0221H283.723V76.4443H283.544Z" fill="#1F403A"></path><path d="M292.455 76.4443H294.594C294.95 76.4443 295.307 76.4443 295.485 76.6221C295.841 76.6221 296.019 76.7999 296.198 76.9777C296.376 77.1554 296.554 77.3332 296.732 77.511C296.911 77.6888 296.911 78.0443 296.911 78.3999C296.911 78.7554 296.911 79.111 296.732 79.4666C296.554 79.6443 296.376 79.9999 296.198 79.9999C296.019 80.1777 295.663 80.1777 295.307 80.3554C294.95 80.3554 294.594 80.3554 294.237 80.3554H293.346V83.0221H292.099V76.4443H292.455ZM294.415 79.2888C294.594 79.2888 294.772 79.2888 294.95 79.2888C295.128 79.2888 295.307 79.2888 295.485 79.111C295.663 78.9332 295.841 78.9332 295.841 78.7554C296.019 78.5777 296.019 78.3999 296.019 78.2221C296.019 78.0443 296.019 77.8666 295.841 77.6888C295.663 77.511 295.663 77.511 295.485 77.3332C295.307 77.3332 295.128 77.1554 294.95 77.1554C294.772 77.1554 294.594 77.1554 294.415 77.1554H293.524V78.9332H294.415V79.2888Z" fill="#1F403A"></path><path d="M298.515 76.4443H302.97V77.511H299.762V79.111H302.792V80.1777H299.762V81.9554H303.148V83.0221H298.515V76.4443Z" fill="#1F403A"></path><path d="M304.574 76.4443H306.178L309.386 81.4221V76.4443H310.634V83.0221H309.208L306 77.8666V83.0221H304.752V76.4443H304.574Z" fill="#1F403A"></path><path d="M60.7722 65.0666L79.4851 46.2222H70.396L51.6831 64.8888V65.0666L70.396 83.7333H79.4851L60.7722 65.0666Z" fill="#818856"></path><path d="M148.455 55.2889L158.97 44.9778H153.089L142.752 55.2889L153.089 65.6H158.97L148.455 55.2889Z" fill="#1F403A"></path><path d="M43.4854 18.8445V25.0667V83.7334H49.723V25.0667H104.97V77.3334H93.7428V83.7334H104.97H108.535H111.208V18.8445H43.4854Z" fill="#818856"></path><path d="M141.327 37.3333H137.228V65.7777H141.327V37.3333Z" fill="#1F403A"></path><path d="M171.624 44.2667C172.158 44.8 172.871 44.9778 173.584 44.9778C174.297 44.9778 175.01 44.8 175.544 44.2667C176.079 43.7333 176.435 43.2 176.435 42.4889C176.435 41.7778 176.079 41.0667 175.544 40.7111C175.01 40.1778 174.297 40 173.584 40C172.871 40 172.158 40.1778 171.624 40.7111C171.089 41.2444 170.911 41.7778 170.911 42.4889C170.911 43.2 171.089 43.7333 171.624 44.2667Z" fill="#1F403A"></path><path d="M267.505 65.6H271.782V56.3556C271.782 56.1778 271.782 55.8222 271.96 55.2889C272.138 54.7556 272.317 54.4 272.673 53.8667C273.03 53.3333 273.386 52.9778 274.099 52.6222C274.634 52.2667 275.525 52.0889 276.594 52.0889C276.95 52.0889 277.307 52.0889 277.663 52.0889C278.02 52.0889 278.376 52.2667 278.733 52.2667V48.1778C278.554 48.1778 278.198 48 278.02 48C277.841 48 277.485 48 277.307 48C276.237 48 275.168 48.3556 274.277 48.8889C273.386 49.4222 272.673 50.1333 272.317 51.2V48.5333H268.039V65.6H267.505ZM250.396 55.2889C250.574 54.0444 251.109 52.9778 251.822 52.2667C252.535 51.5556 253.604 51.2 254.851 51.2C256.277 51.2 257.346 51.5556 258.059 52.2667C258.772 52.9778 259.307 54.0444 259.307 55.2889H250.396ZM263.584 58.4889V57.2444C263.584 55.8222 263.406 54.4 263.049 53.3333C262.693 52.0889 262.158 51.2 261.445 50.4889C260.733 49.7778 259.841 49.0667 258.95 48.7111C257.881 48.3556 256.812 48 255.742 48C254.495 48 253.247 48.1778 252 48.7111C250.931 49.0667 249.861 49.7778 248.97 50.4889C248.079 51.2 247.544 52.2667 247.01 53.3333C246.475 54.4 246.297 55.6444 246.297 57.0667C246.297 58.4889 246.475 59.7333 247.01 60.8C247.544 61.8667 248.079 62.9333 248.97 63.6444C249.861 64.3556 250.752 65.0667 252 65.4222C253.069 65.7778 254.317 66.1333 255.742 66.1333C257.168 66.1333 258.416 65.9556 259.663 65.4222C260.911 64.8889 261.98 64 263.049 62.7556L260.02 60.4444C259.485 61.1556 258.772 61.6889 258.059 62.0444C257.346 62.4 256.455 62.7556 255.386 62.7556C254.138 62.7556 253.069 62.4 252.178 61.6889C251.287 60.9778 250.752 59.9111 250.752 58.6667H263.584V58.4889Z" fill="#818856"></path><path d="M222.594 58.8444C222.594 60.0889 222.238 60.9778 221.525 61.6889C220.812 62.4 219.743 62.7556 218.317 62.7556C217.96 62.7556 217.604 62.7556 217.248 62.5778C216.891 62.5778 216.535 62.4 216.356 62.2222C216 62.0444 215.822 61.8667 215.644 61.5111C215.465 61.1556 215.287 60.9778 215.287 60.4444C215.287 59.9111 215.465 59.3778 216 59.0222C216.535 58.6667 217.069 58.4889 217.604 58.3111C218.317 58.1333 219.03 57.9556 219.743 57.9556C220.455 57.9556 221.168 57.9556 221.703 57.9556H222.594V58.8444ZM222.772 65.6H226.693V55.6444C226.693 55.2889 226.693 54.7556 226.693 54.2222C226.693 53.6889 226.515 53.1556 226.515 52.6222C226.337 52.0889 226.158 51.5556 225.802 50.8444C225.446 50.3111 225.089 49.7778 224.554 49.4222C224.02 49.0667 223.307 48.7111 222.416 48.3556C221.525 48 220.634 48 219.386 48C217.96 48 216.713 48.1778 215.465 48.7111C214.218 49.0667 213.149 49.7778 212.079 50.8444L214.396 53.1556C214.931 52.6222 215.644 52.0889 216.356 51.9111C217.069 51.5556 217.96 51.3778 218.852 51.3778C219.921 51.3778 220.99 51.7333 221.703 52.2667C222.416 52.8 222.772 53.6889 222.772 54.7556V55.2889H221.703C220.99 55.2889 220.277 55.2889 219.386 55.2889C218.495 55.2889 217.782 55.4667 216.891 55.4667C216.178 55.6444 215.287 55.8222 214.574 56C213.861 56.1778 213.149 56.5333 212.614 57.0667C212.079 57.4222 211.545 58.1333 211.188 58.6667C210.832 59.3778 210.653 60.0889 210.653 60.9778C210.653 61.8667 210.832 62.5778 211.188 63.2889C211.545 64 212.079 64.5333 212.614 64.8889C213.149 65.2444 213.861 65.6 214.574 65.7778C215.287 65.9556 216.178 66.1333 216.891 66.1333C217.96 66.1333 219.03 65.9556 220.099 65.4222C220.99 65.0667 221.881 64.3556 222.416 63.2889H222.594V65.6H222.772ZM180.713 65.6H184.99V56.1778C184.99 55.6444 184.99 55.1111 185.168 54.5778C185.347 54.0444 185.525 53.5111 185.881 53.1556C186.238 52.8 186.594 52.4444 187.129 52.2667C187.663 52.0889 188.198 51.9111 188.911 51.9111C189.98 51.9111 190.693 52.2667 191.228 52.8C191.762 53.5111 191.941 54.2222 191.941 55.2889V65.6H196.218V56.3556C196.218 55.8222 196.218 55.2889 196.396 54.7556C196.574 54.2222 196.752 53.6889 197.109 53.3333C197.465 52.9778 197.822 52.6222 198.178 52.2667C198.535 51.9111 199.248 51.9111 199.96 51.9111C200.673 51.9111 201.208 52.0889 201.564 52.2667C201.921 52.4444 202.277 52.8 202.455 53.1556C202.634 53.5111 202.812 53.8667 202.99 54.4C203.168 54.9333 203.168 55.4667 203.168 56V65.7778H207.446V55.4667C207.446 54.4 207.267 53.5111 207.089 52.6222C206.911 51.7333 206.554 51.0222 206.02 50.3111C205.485 49.6 204.951 49.0667 204.059 48.7111C203.347 48.3556 202.277 48.1778 201.208 48.1778C199.96 48.1778 198.891 48.3556 197.822 48.8889C196.931 49.4222 196.04 50.1333 195.505 51.3778C194.614 49.2444 192.832 48.1778 190.158 48.1778C188.733 48.1778 187.663 48.5333 186.772 49.0667C185.881 49.7778 185.347 50.4889 184.99 51.2V48.5333H180.891V65.6H180.713Z" fill="#1F403A"></path><path d="M306.713 58.8444C306.713 60.0889 306.356 60.9778 305.643 61.6889C304.931 62.4 303.861 62.7556 302.435 62.7556C302.079 62.7556 301.723 62.7556 301.366 62.5778C301.01 62.5778 300.653 62.4 300.475 62.2222C300.119 62.0444 299.94 61.8667 299.762 61.5111C299.584 61.1556 299.406 60.9778 299.406 60.4444C299.406 59.9111 299.584 59.3778 300.119 59.0222C300.653 58.6667 301.188 58.4889 301.723 58.3111C302.435 58.1333 303.148 57.9556 303.861 57.9556C304.574 57.9556 305.287 57.9556 305.822 57.9556H306.713V58.8444ZM306.891 65.6H310.812V55.6444C310.812 55.2889 310.812 54.7556 310.812 54.2222C310.812 53.6889 310.634 53.1556 310.634 52.6222C310.455 52.0889 310.277 51.5556 309.921 50.8444C309.564 50.3111 309.208 49.7778 308.673 49.4222C308.138 49.0667 307.426 48.7111 306.534 48.3556C305.643 48 304.752 48 303.505 48C302.079 48 300.832 48.1778 299.584 48.7111C298.336 49.0667 297.267 49.7778 296.198 50.8444L298.515 53.1556C299.049 52.6222 299.762 52.0889 300.475 51.9111C301.188 51.5556 302.079 51.3778 302.97 51.3778C304.039 51.3778 305.109 51.7333 305.822 52.2667C306.535 52.8 306.891 53.6889 306.891 54.7556V55.2889H305.822C305.109 55.2889 304.396 55.2889 303.505 55.2889C302.614 55.2889 301.901 55.4667 301.01 55.4667C300.297 55.6444 299.406 55.8222 298.693 56C297.98 56.1778 297.267 56.5333 296.733 57.0667C296.198 57.4222 295.663 58.1333 295.307 58.6667C294.95 59.3778 294.772 60.0889 294.772 60.9778C294.772 61.8667 294.95 62.5778 295.307 63.2889C295.663 64 296.198 64.5333 296.733 64.8889C297.267 65.2444 297.98 65.6 298.693 65.7778C299.406 65.9556 300.297 66.1333 301.01 66.1333C302.079 66.1333 303.148 65.9556 304.218 65.4222C305.109 65.0667 306 64.3556 306.534 63.2889H306.713V65.6H306.891ZM282.119 65.6H286.396V56.3556C286.396 56.1778 286.396 55.8222 286.574 55.2889C286.752 54.7556 286.931 54.4 287.287 53.8667C287.643 53.3333 288 52.9778 288.713 52.6222C289.247 52.2667 290.138 52.0889 291.208 52.0889C291.564 52.0889 291.921 52.0889 292.277 52.0889C292.633 52.0889 292.99 52.2667 293.346 52.2667V48.1778C293.168 48.1778 292.812 48 292.633 48C292.455 48 292.099 48 291.921 48C290.851 48 289.782 48.3556 288.891 48.8889C288 49.4222 287.287 50.1333 286.931 51.2V48.5333H282.653V65.6H282.119Z" fill="#818856"></path><path d="M23.1682 31.1111C20.8514 31.1111 18.891 29.1556 18.891 26.8445C18.891 24.5334 20.8514 22.5778 23.1682 22.5778C25.4851 22.5778 27.4455 24.5334 27.4455 26.8445C27.2672 29.1556 25.4851 31.1111 23.1682 31.1111ZM23.1682 18.8445C18.7128 18.8445 15.1484 22.4 15.1484 26.8445C15.1484 31.2889 18.7128 34.8445 23.1682 34.8445C27.6237 34.8445 31.188 31.2889 31.188 26.8445C31.0098 22.4 27.4455 18.8445 23.1682 18.8445Z" fill="#EF7858"></path></svg> 