<?xml version="1.0" encoding="utf-8"?>
<!-- Generator: Adobe Illustrator 23.0.1, SVG Export Plug-In . SVG Version: 6.00 Build 0)  -->
<svg version="1.1" id="Laag_1" xmlns="http://www.w3.org/2000/svg" xmlns:xlink="http://www.w3.org/1999/xlink" x="0px" y="0px"
	 viewBox="0 0 566.93 340.16" style="enable-background:new 0 0 566.93 340.16;" xml:space="preserve">
<style type="text/css">
	.st0{fill:#F39200;}
	.st1{fill:#1D71B8;}
	.st2{fill:none;stroke:#F39200;stroke-width:5.2878;stroke-linecap:round;stroke-miterlimit:10;}
</style>
<path class="st0" d="M729.78,140.38l13.68-17.92c1.04-1.36,2.05-2.47,3.04-3.32c0.99-0.85,2.13-1.27,3.43-1.27
	c0.73,0,1.45,0.13,2.15,0.4s1.34,0.65,1.91,1.15c0.56,0.49,1.02,1.07,1.38,1.73c0.35,0.66,0.53,1.38,0.53,2.15
	c0,0.47-0.11,0.96-0.32,1.47c-0.21,0.51-0.48,1.01-0.8,1.52c-0.32,0.5-0.68,1.01-1.1,1.52c-0.41,0.5-0.81,0.98-1.18,1.43
	l-10.57,12.34l12.3,15.44c0.4,0.49,0.8,1.02,1.2,1.57c0.4,0.56,0.77,1.11,1.1,1.66c0.33,0.55,0.6,1.1,0.81,1.62
	c0.21,0.53,0.32,1.04,0.32,1.54c0,0.78-0.18,1.51-0.55,2.21c-0.36,0.69-0.84,1.31-1.43,1.84c-0.59,0.53-1.25,0.95-2,1.25
	c-0.74,0.31-1.48,0.46-2.21,0.46c-0.85,0-1.63-0.19-2.36-0.57s-1.42-0.86-2.07-1.45c-0.65-0.59-1.25-1.24-1.81-1.94
	c-0.55-0.71-1.08-1.4-1.57-2.08l-13.89-18.83l0.07,17.99c0,0.96-0.17,1.86-0.51,2.7c-0.35,0.84-0.81,1.57-1.42,2.19
	c-0.6,0.63-1.29,1.11-2.08,1.47c-0.79,0.35-1.64,0.53-2.56,0.53c-0.92,0-1.77-0.18-2.56-0.53c-0.79-0.35-1.48-0.84-2.07-1.47
	c-0.59-0.62-1.06-1.35-1.4-2.19c-0.34-0.84-0.51-1.74-0.51-2.7v-37.57c0-0.96,0.17-1.86,0.51-2.7c0.34-0.84,0.81-1.57,1.4-2.19
	c0.59-0.62,1.28-1.11,2.07-1.47c0.79-0.35,1.64-0.53,2.56-0.53c0.87,0,1.71,0.17,2.51,0.53c0.8,0.35,1.5,0.85,2.1,1.47
	c0.6,0.62,1.08,1.35,1.43,2.19c0.35,0.84,0.53,1.74,0.53,2.7L729.78,140.38z"/>
<path class="st0" d="M818.72,130.2c-2.1,5.18-3.97,9.8-5.62,13.85c-0.71,1.75-1.39,3.44-2.05,5.09c-0.66,1.65-1.25,3.12-1.79,4.42
	c-0.53,1.3-0.96,2.34-1.29,3.15l-0.46,1.17c-0.5,1.2-1.02,2.34-1.58,3.43c-0.55,1.08-1.18,2.03-1.89,2.84
	c-0.71,0.81-1.5,1.46-2.38,1.94c-0.88,0.48-1.9,0.73-3.06,0.73c-1.06,0-1.99-0.18-2.79-0.55c-0.8-0.37-1.54-0.92-2.21-1.66
	s-1.3-1.67-1.89-2.79c-0.59-1.12-1.17-2.42-1.77-3.9l-11.13-27.56v33.71c0,0.71-0.13,1.38-0.41,2.02c-0.27,0.63-0.64,1.18-1.11,1.64
	c-0.47,0.46-1.02,0.83-1.66,1.1c-0.63,0.27-1.31,0.41-2.02,0.41c-0.71,0-1.38-0.14-2.01-0.41c-0.63-0.27-1.19-0.63-1.64-1.1
	c-0.46-0.46-0.83-1.01-1.1-1.64c-0.27-0.63-0.41-1.31-0.41-2.02v-32.61c0-2.05,0.11-3.92,0.32-5.6c0.21-1.68,0.64-3.11,1.29-4.29
	c0.65-1.18,1.56-2.09,2.72-2.74c1.17-0.65,2.71-0.97,4.61-0.97c1.36,0,2.56,0.23,3.58,0.71c1.03,0.47,1.98,1.23,2.86,2.28
	c0.88,1.05,1.74,2.41,2.58,4.08c0.84,1.67,1.75,3.7,2.74,6.08l9.43,22.79h0.29l9.54-22.79c0.85-2.03,1.68-3.85,2.49-5.48
	c0.81-1.62,1.68-3,2.6-4.13c0.92-1.13,1.92-2,3-2.61c1.08-0.61,2.32-0.92,3.71-0.92c1.51,0,2.82,0.22,3.94,0.67
	c1.12,0.45,2.04,1.17,2.76,2.15c0.72,0.99,1.25,2.27,1.61,3.84c0.35,1.57,0.53,3.46,0.53,5.67v33.89c0,0.71-0.13,1.38-0.4,2.02
	c-0.27,0.63-0.64,1.18-1.11,1.64c-0.47,0.46-1.02,0.83-1.66,1.1c-0.63,0.27-1.31,0.41-2.02,0.41s-1.38-0.14-2.01-0.41
	c-0.64-0.27-1.19-0.63-1.65-1.1c-0.46-0.46-0.82-1.01-1.1-1.64c-0.27-0.63-0.4-1.31-0.4-2.02V130.2z"/>
<path class="st0" d="M852.01,143.56c0,5.84,0.93,10.25,2.79,13.23c1.86,2.98,4.77,4.47,8.73,4.47c3.89,0,6.78-1.48,8.69-4.45
	c1.91-2.97,2.86-7.39,2.86-13.25c0-2.83-0.23-5.34-0.69-7.54c-0.46-2.21-1.16-4.06-2.1-5.57c-0.94-1.51-2.14-2.66-3.59-3.45
	c-1.45-0.79-3.17-1.18-5.18-1.18c-1.98,0-3.69,0.4-5.14,1.18c-1.45,0.79-2.64,1.94-3.59,3.45c-0.94,1.51-1.64,3.36-2.1,5.57
	C852.24,138.22,852.01,140.73,852.01,143.56 M838.26,143.56c0-3.89,0.52-7.48,1.57-10.78c1.05-3.3,2.62-6.14,4.72-8.52
	c2.1-2.38,4.73-4.24,7.88-5.58c3.16-1.34,6.86-2.02,11.1-2.02c4.12,0,7.76,0.65,10.92,1.94c3.16,1.3,5.8,3.13,7.92,5.5
	c2.12,2.37,3.72,5.2,4.8,8.5c1.08,3.3,1.63,6.95,1.63,10.95c0,3.94-0.53,7.55-1.59,10.85c-1.06,3.3-2.65,6.13-4.77,8.5
	s-4.76,4.21-7.92,5.53c-3.16,1.32-6.82,1.98-10.99,1.98c-4.07,0-7.69-0.64-10.83-1.91c-3.14-1.27-5.79-3.08-7.93-5.42
	c-2.14-2.34-3.77-5.17-4.86-8.46C838.81,151.32,838.26,147.64,838.26,143.56"/>
<path class="st1" d="M728.21,224.01c0,2.24-0.45,3.96-1.36,5.16s-2.41,1.81-4.51,1.81c-1.98,0-3.37-0.6-4.19-1.81
	s-1.22-2.92-1.22-5.16l-0.04-22.15h-1.77c-0.64,0-1.24-0.05-1.81-0.15c-0.56-0.11-1.05-0.29-1.46-0.55c-0.41-0.26-0.74-0.59-0.99-1
	c-0.25-0.41-0.37-0.94-0.37-1.58c0-0.89,0.34-1.66,1.02-2.31c0.68-0.65,1.73-0.98,3.15-0.98h2.23v-2.26c0-2.47,0.24-4.58,0.72-6.34
	c0.48-1.75,1.22-3.21,2.21-4.33c0.99-1.13,2.25-1.96,3.77-2.48s3.32-0.78,5.42-0.78c1.08,0,2.15,0.05,3.2,0.13
	c1.05,0.08,1.99,0.26,2.82,0.54c0.84,0.29,1.52,0.71,2.03,1.27c0.52,0.56,0.78,1.33,0.78,2.3c0,1.06-0.32,1.91-0.95,2.54
	c-0.63,0.63-1.54,0.96-2.72,0.96c-0.28,0-0.56,0-0.85-0.01c-0.28-0.01-0.55-0.02-0.81-0.02c-0.89,0-1.62,0.12-2.17,0.34
	c-0.56,0.22-0.99,0.61-1.31,1.18c-0.32,0.56-0.54,1.34-0.65,2.32c-0.12,0.98-0.17,2.22-0.17,3.73v0.92h3.39
	c0.52,0,1.02,0.07,1.52,0.2c0.5,0.13,0.93,0.32,1.31,0.58c0.38,0.26,0.69,0.6,0.92,1.01c0.23,0.41,0.35,0.91,0.35,1.5
	c0,1.11-0.39,1.93-1.18,2.48c-0.79,0.54-1.9,0.81-3.34,0.81h-2.97V224.01z"/>
<path class="st1" d="M760.68,214.5c-1.6-0.05-3.19-0.02-4.77,0.07c-1.58,0.1-2.99,0.35-4.24,0.77c-1.25,0.41-2.25,1.01-3.02,1.81
	c-0.76,0.8-1.15,1.88-1.15,3.25c0,0.75,0.14,1.44,0.42,2.05s0.68,1.14,1.18,1.59c0.51,0.45,1.11,0.79,1.81,1.02
	c0.69,0.23,1.46,0.35,2.31,0.35c1.08,0,2.08-0.19,2.98-0.58c0.91-0.39,1.69-0.96,2.35-1.7c0.66-0.74,1.18-1.65,1.56-2.72
	c0.38-1.07,0.56-2.31,0.56-3.7V214.5z M760.72,207.72c0-1.98-0.52-3.38-1.57-4.21c-1.05-0.83-2.46-1.24-4.23-1.24
	c-1.06,0-2.05,0.06-2.97,0.18c-0.92,0.12-1.78,0.27-2.59,0.45c-0.81,0.17-1.59,0.35-2.32,0.54c-0.73,0.19-1.42,0.37-2.08,0.53
	c-0.54,0.14-1.02,0.21-1.45,0.21c-0.78,0-1.48-0.25-2.1-0.75c-0.63-0.5-0.94-1.21-0.94-2.11c0-0.87,0.22-1.64,0.67-2.3
	c0.45-0.66,1.06-1.23,1.82-1.71c0.77-0.48,1.65-0.88,2.67-1.2c1.01-0.32,2.08-0.58,3.2-0.77c1.12-0.19,2.27-0.32,3.44-0.4
	c1.18-0.08,2.31-0.13,3.39-0.13c2.26,0,4.34,0.26,6.22,0.77c1.88,0.51,3.5,1.35,4.86,2.52c1.36,1.17,2.42,2.72,3.18,4.63
	c0.77,1.91,1.15,4.25,1.15,7.03v14.13c0,0.92-0.06,1.8-0.17,2.65c-0.12,0.85-0.35,1.6-0.71,2.26c-0.35,0.66-0.86,1.19-1.52,1.58
	c-0.66,0.39-1.53,0.58-2.61,0.58c-1.7,0-2.95-0.55-3.77-1.67c-0.81-1.12-1.22-2.72-1.22-4.8c-0.61,1.2-1.36,2.24-2.25,3.11
	c-0.88,0.87-1.85,1.59-2.91,2.15c-1.06,0.55-2.19,0.96-3.38,1.23c-1.19,0.27-2.4,0.4-3.62,0.4c-1.65,0-3.18-0.23-4.59-0.72
	c-1.41-0.48-2.63-1.17-3.65-2.05c-1.03-0.88-1.83-1.94-2.4-3.18c-0.58-1.24-0.86-2.63-0.86-4.16c0-2.14,0.45-3.98,1.34-5.51
	c0.9-1.53,2.2-2.78,3.9-3.75c1.71-0.97,3.79-1.67,6.26-2.12c2.46-0.45,5.27-0.67,8.43-0.67h3.39V207.72z"/>
<path class="st1" d="M777.79,213.06c0-2.66,0.48-5.11,1.45-7.35c0.97-2.24,2.29-4.17,3.98-5.79c1.69-1.63,3.67-2.89,5.97-3.79
	c2.3-0.91,4.79-1.36,7.47-1.36c1.41,0,2.83,0.12,4.26,0.35c1.42,0.23,2.71,0.6,3.85,1.1c1.14,0.49,2.08,1.13,2.79,1.9
	c0.72,0.77,1.08,1.67,1.08,2.73c0,1.04-0.34,1.86-1.01,2.48c-0.67,0.61-1.52,0.92-2.56,0.92c-0.54,0-1.11-0.06-1.7-0.17
	c-0.59-0.12-1.19-0.23-1.82-0.37c-0.62-0.13-1.24-0.26-1.85-0.38c-0.61-0.12-1.2-0.18-1.77-0.18c-1.2,0-2.33,0.21-3.39,0.63
	c-1.06,0.41-1.98,1.02-2.76,1.85c-0.78,0.83-1.4,1.85-1.86,3.07c-0.46,1.22-0.69,2.66-0.69,4.31c0,1.32,0.17,2.58,0.53,3.78
	c0.35,1.2,0.89,2.26,1.61,3.17c0.72,0.9,1.63,1.62,2.72,2.17s2.38,0.81,3.87,0.81c0.59,0,1.22-0.06,1.89-0.18
	c0.67-0.12,1.34-0.25,2-0.4c0.66-0.15,1.31-0.29,1.96-0.41c0.65-0.12,1.26-0.17,1.82-0.17c0.99,0,1.82,0.31,2.49,0.91
	c0.67,0.6,1.01,1.39,1.01,2.38c0,1.02-0.37,1.92-1.1,2.71s-1.7,1.45-2.9,1.99c-1.2,0.54-2.57,0.95-4.11,1.24
	c-1.54,0.28-3.13,0.42-4.75,0.42c-2.33,0-4.61-0.38-6.84-1.14s-4.2-1.91-5.92-3.43c-1.72-1.52-3.11-3.42-4.15-5.72
	C778.31,218.8,777.79,216.12,777.79,213.06"/>
<path class="st1" d="M819.17,195.28l0.78-7.32c0.07-0.71,0.19-1.41,0.37-2.12c0.18-0.71,0.46-1.35,0.85-1.94
	c0.39-0.59,0.91-1.06,1.58-1.42c0.66-0.37,1.52-0.56,2.58-0.56c1.55,0,2.68,0.54,3.37,1.63s1.04,2.7,1.04,4.84v6.89h3.96
	c1.2,0,2.18,0.31,2.94,0.91c0.75,0.6,1.13,1.54,1.13,2.84c0,1.2-0.4,2.11-1.2,2.71c-0.8,0.6-1.88,0.9-3.25,0.9h-3.57v13.35
	c0,1.41,0.02,2.61,0.07,3.61c0.05,0.99,0.2,1.8,0.46,2.42c0.26,0.62,0.65,1.07,1.17,1.35c0.52,0.27,1.26,0.4,2.22,0.4
	c0.69,0,1.35,0.04,2,0.1c0.65,0.06,1.22,0.2,1.71,0.44c0.49,0.23,0.89,0.59,1.18,1.05s0.44,1.08,0.44,1.88
	c0,0.9-0.22,1.61-0.67,2.16c-0.45,0.54-1.09,0.96-1.92,1.26s-1.84,0.5-3,0.6c-1.17,0.1-2.47,0.15-3.9,0.15
	c-1.65-0.02-3.15-0.27-4.51-0.74c-1.35-0.47-2.52-1.21-3.5-2.24c-0.98-1.02-1.73-2.36-2.26-3.99c-0.53-1.64-0.79-3.65-0.79-6.03
	v-15.76h-1.63c-1.27,0-2.33-0.3-3.18-0.9c-0.85-0.6-1.27-1.58-1.27-2.92c0-1.06,0.34-1.91,1.01-2.56c0.67-0.65,1.69-0.98,3.06-0.98
	H819.17z"/>
<path class="st1" d="M853.55,217.86c0,1.11,0.15,2.07,0.44,2.9c0.29,0.83,0.7,1.52,1.22,2.08c0.52,0.55,1.12,0.96,1.82,1.23
	c0.7,0.27,1.44,0.4,2.25,0.4c0.94,0,1.85-0.14,2.72-0.42c0.87-0.29,1.64-0.72,2.31-1.31c0.67-0.59,1.21-1.33,1.61-2.23
	c0.4-0.9,0.6-1.94,0.6-3.15v-14.98c0-2.24,0.4-3.96,1.22-5.16s2.21-1.81,4.19-1.81c2.1,0,3.6,0.6,4.51,1.81
	c0.9,1.2,1.36,2.92,1.36,5.16v21.63c0,2.24-0.46,3.96-1.36,5.16c-0.91,1.2-2.41,1.8-4.51,1.8c-1.98,0-3.37-0.6-4.19-1.8
	c-0.81-1.2-1.22-2.92-1.22-5.16c-0.5,1.08-1.14,2.07-1.93,2.97c-0.79,0.89-1.71,1.67-2.75,2.32c-1.05,0.65-2.2,1.14-3.46,1.5
	c-1.26,0.35-2.62,0.53-4.08,0.53c-1.58,0-3.09-0.27-4.54-0.83c-1.45-0.55-2.73-1.38-3.84-2.47c-1.11-1.1-1.99-2.46-2.65-4.09
	c-0.66-1.63-0.99-3.52-0.99-5.69v-15.87c0-2.24,0.4-3.96,1.22-5.16s2.21-1.81,4.19-1.81c2.09,0,3.6,0.6,4.5,1.81
	c0.91,1.2,1.36,2.92,1.36,5.16V217.86z"/>
<path class="st1" d="M897.29,224.01c0,2.24-0.45,3.96-1.36,5.16c-0.9,1.2-2.41,1.81-4.5,1.81c-1.98,0-3.38-0.6-4.19-1.81
	s-1.22-2.92-1.22-5.16v-23.32c0-0.87,0.16-1.64,0.48-2.3s0.74-1.2,1.27-1.63c0.53-0.42,1.13-0.75,1.82-0.99
	c0.69-0.24,1.4-0.35,2.16-0.35c1.84,0,3.22,0.59,4.15,1.77c0.93,1.18,1.4,2.93,1.4,5.26c0.4-2.38,1.36-4.24,2.9-5.59
	s3.5-2.04,5.9-2.04c0.73,0,1.38,0.13,1.94,0.38c0.56,0.25,1.04,0.57,1.41,0.97c0.38,0.4,0.66,0.86,0.85,1.38
	c0.19,0.52,0.28,1.04,0.28,1.56c0,1.51-0.52,2.63-1.57,3.34c-1.05,0.72-2.46,1.13-4.23,1.25c-1.06,0.1-2.04,0.29-2.95,0.6
	c-0.9,0.31-1.69,0.77-2.36,1.37c-0.67,0.6-1.2,1.36-1.59,2.31c-0.39,0.94-0.58,2.09-0.58,3.46V224.01z"/>
<path class="st1" d="M936.13,214.5c-1.6-0.05-3.19-0.02-4.77,0.07c-1.58,0.1-2.99,0.35-4.24,0.77s-2.25,1.01-3.02,1.81
	s-1.15,1.88-1.15,3.25c0,0.75,0.14,1.44,0.42,2.05c0.28,0.61,0.68,1.14,1.18,1.59c0.51,0.45,1.11,0.79,1.81,1.02
	c0.69,0.23,1.46,0.35,2.31,0.35c1.08,0,2.08-0.19,2.99-0.58c0.9-0.39,1.69-0.96,2.35-1.7c0.66-0.74,1.18-1.65,1.56-2.72
	c0.38-1.07,0.56-2.31,0.56-3.7V214.5z M936.16,207.72c0-1.98-0.52-3.38-1.57-4.21c-1.05-0.83-2.46-1.24-4.23-1.24
	c-1.06,0-2.05,0.06-2.97,0.18c-0.92,0.12-1.78,0.27-2.59,0.45c-0.81,0.17-1.59,0.35-2.32,0.54c-0.73,0.19-1.42,0.37-2.08,0.53
	c-0.54,0.14-1.02,0.21-1.45,0.21c-0.78,0-1.48-0.25-2.1-0.75c-0.63-0.5-0.94-1.21-0.94-2.11c0-0.87,0.22-1.64,0.67-2.3
	c0.45-0.66,1.06-1.23,1.82-1.71c0.77-0.48,1.65-0.88,2.67-1.2c1.01-0.32,2.08-0.58,3.2-0.77c1.12-0.19,2.27-0.32,3.44-0.4
	c1.18-0.08,2.31-0.13,3.39-0.13c2.26,0,4.34,0.26,6.22,0.77c1.88,0.51,3.5,1.35,4.86,2.52c1.35,1.17,2.41,2.72,3.18,4.63
	c0.77,1.91,1.15,4.25,1.15,7.03v14.13c0,0.92-0.06,1.8-0.18,2.65c-0.12,0.85-0.35,1.6-0.71,2.26c-0.35,0.66-0.86,1.19-1.52,1.58
	c-0.66,0.39-1.53,0.58-2.61,0.58c-1.7,0-2.95-0.55-3.77-1.67c-0.81-1.12-1.22-2.72-1.22-4.8c-0.61,1.2-1.36,2.24-2.24,3.11
	c-0.88,0.87-1.86,1.59-2.92,2.15c-1.06,0.55-2.19,0.96-3.38,1.23c-1.19,0.27-2.4,0.4-3.62,0.4c-1.65,0-3.18-0.23-4.59-0.72
	c-1.41-0.48-2.63-1.17-3.65-2.05c-1.03-0.88-1.83-1.94-2.4-3.18c-0.58-1.24-0.86-2.63-0.86-4.16c0-2.14,0.45-3.98,1.34-5.51
	c0.9-1.53,2.2-2.78,3.9-3.75c1.71-0.97,3.79-1.67,6.26-2.12c2.46-0.45,5.27-0.67,8.43-0.67h3.39V207.72z"/>
<path class="st1" d="M958.18,195.28l0.78-7.32c0.07-0.71,0.19-1.41,0.37-2.12c0.18-0.71,0.46-1.35,0.85-1.94
	c0.39-0.59,0.91-1.06,1.58-1.42c0.66-0.37,1.52-0.56,2.58-0.56c1.56,0,2.68,0.54,3.37,1.63c0.69,1.08,1.04,2.7,1.04,4.84v6.89h3.96
	c1.2,0,2.18,0.31,2.94,0.91c0.75,0.6,1.13,1.54,1.13,2.84c0,1.2-0.4,2.11-1.2,2.71c-0.8,0.6-1.88,0.9-3.25,0.9h-3.57v13.35
	c0,1.41,0.02,2.61,0.07,3.61c0.05,0.99,0.2,1.8,0.46,2.42c0.26,0.62,0.65,1.07,1.16,1.35c0.52,0.27,1.26,0.4,2.23,0.4
	c0.68,0,1.35,0.04,2,0.1c0.65,0.06,1.22,0.2,1.71,0.44c0.49,0.23,0.89,0.59,1.18,1.05c0.29,0.46,0.44,1.08,0.44,1.88
	c0,0.9-0.22,1.61-0.67,2.16c-0.45,0.54-1.09,0.96-1.92,1.26s-1.84,0.5-3,0.6c-1.17,0.1-2.47,0.15-3.9,0.15
	c-1.65-0.02-3.15-0.27-4.51-0.74c-1.35-0.47-2.52-1.21-3.5-2.24c-0.98-1.02-1.73-2.36-2.26-3.99c-0.53-1.64-0.79-3.65-0.79-6.03
	v-15.76h-1.63c-1.27,0-2.33-0.3-3.18-0.9c-0.85-0.6-1.27-1.58-1.27-2.92c0-1.06,0.34-1.91,1.01-2.56c0.67-0.65,1.69-0.98,3.05-0.98
	H958.18z"/>
<path class="st1" d="M993.83,224.01c0,2.24-0.45,3.96-1.36,5.16c-0.9,1.2-2.41,1.8-4.5,1.8c-1.98,0-3.38-0.6-4.19-1.8
	c-0.81-1.2-1.22-2.92-1.22-5.16v-21.63c0-2.24,0.41-3.96,1.22-5.16c0.81-1.2,2.21-1.8,4.19-1.8c2.09,0,3.6,0.6,4.5,1.8
	c0.91,1.2,1.36,2.92,1.36,5.16V224.01z M994.36,182.84c0,0.78-0.18,1.47-0.53,2.08c-0.35,0.6-0.81,1.1-1.38,1.5
	c-0.56,0.4-1.22,0.71-1.96,0.9c-0.74,0.2-1.5,0.29-2.28,0.29c-0.83,0-1.61-0.1-2.35-0.32c-0.74-0.21-1.4-0.52-1.96-0.93
	c-0.57-0.41-1.02-0.92-1.35-1.51c-0.33-0.59-0.49-1.26-0.49-2.02c0-0.68,0.16-1.31,0.48-1.88c0.32-0.58,0.75-1.08,1.29-1.51
	c0.54-0.42,1.19-0.75,1.94-0.99c0.75-0.24,1.58-0.35,2.47-0.35c0.78,0,1.54,0.1,2.28,0.32c0.74,0.21,1.39,0.52,1.96,0.92
	c0.56,0.4,1.02,0.9,1.36,1.48C994.19,181.42,994.36,182.09,994.36,182.84"/>
<path class="st1" d="M1027.79,209.88c-0.07-1.25-0.29-2.4-0.65-3.46c-0.37-1.06-0.88-1.98-1.56-2.76c-0.67-0.78-1.5-1.38-2.47-1.81
	c-0.98-0.44-2.11-0.66-3.41-0.66c-1.18,0-2.25,0.23-3.2,0.69c-0.95,0.46-1.78,1.08-2.47,1.87s-1.24,1.71-1.63,2.76
	c-0.39,1.05-0.61,2.17-0.69,3.37H1027.79z M1037.23,212.03c0,0.96-0.32,1.69-0.95,2.15c-0.64,0.47-1.52,0.71-2.65,0.71h-21.87
	c0.12,2.85,0.94,5.07,2.46,6.63c1.52,1.57,3.83,2.34,6.94,2.34c1.01,0,1.96-0.06,2.84-0.19c0.88-0.13,1.75-0.31,2.59-0.53
	c0.85-0.22,1.7-0.48,2.54-0.77c0.85-0.28,1.73-0.58,2.65-0.88c0.31-0.12,0.58-0.18,0.81-0.18c0.78,0,1.4,0.31,1.87,0.91
	s0.71,1.29,0.71,2.09c0,0.47-0.08,0.92-0.25,1.35c-0.47,1.13-1.25,2.07-2.33,2.81s-2.33,1.33-3.75,1.77
	c-1.41,0.44-2.91,0.73-4.49,0.89c-1.58,0.17-3.09,0.25-4.52,0.25c-2.71,0-5.23-0.39-7.58-1.17c-2.34-0.78-4.38-1.93-6.1-3.46
	c-1.72-1.53-3.07-3.45-4.04-5.76c-0.98-2.31-1.47-4.98-1.47-8.02c0-2.54,0.47-4.92,1.41-7.14c0.94-2.21,2.26-4.13,3.94-5.76
	c1.69-1.63,3.69-2.91,6.01-3.85c2.32-0.94,4.87-1.41,7.65-1.41c3.02,0,5.62,0.47,7.81,1.4c2.19,0.93,4,2.18,5.44,3.75
	c1.44,1.57,2.51,3.39,3.21,5.48C1036.84,207.53,1037.2,209.72,1037.23,212.03"/>
<path class="st0" d="M903.8,142.09c6.74,18.46,23.4,25.9,38.43,25.09c15.03-0.81,26.26-11.07,36.19-15.33
	C929.47,158.17,897.07,123.63,903.8,142.09"/>
<path class="st0" d="M949.97,121.29c-4.72-8.57-13.99-17.79-23.17-15.81c-7.38,1.59-9.81,11.62,0.46,17.38
	c16.17,9.06,22.52,22.42,51.17,29C978.42,151.85,958.39,136.58,949.97,121.29"/>
<path class="st0" d="M1076.24,183.84c16.33,2.92,27.67-9.38,38.68-27.48C1114.92,156.36,1059.91,180.92,1076.24,183.84"/>
<path class="st0" d="M1153.36,42.76c-0.78,1.62-0.84,3.49-0.42,6.11c-2.4-1.14-3.61-4.58-2.33-7.34c1.29-2.71,3.94-4.07,6.52-4.13
	C1155.57,39.54,1154.04,41.05,1153.36,42.76 M1190.89,41.3c-0.73-1.5-3.02,15.37-26.67,22.13c22.67-12.25,18.18-35.67,15.82-37.62
	c-13.39-11.1-35.66-8.45-47.24,6.25c-20.07,25.49-3.57,87.89-83.72,117.48c-26.41,9.75-70.66,2.33-70.66,2.33
	s26.33,14.33,63.73,16.29c82.83,4.34,142.08-60.03,151.65-103.4C1195.2,58.42,1194.84,49.45,1190.89,41.3"/>
<path class="st1" d="M1147.58,299.22c0.05-0.58,0.18-1.12,0.4-1.64c0.21-0.52,0.5-0.97,0.85-1.36s0.77-0.7,1.26-0.93
	c0.49-0.23,1.02-0.34,1.61-0.34c0.67,0,1.27,0.1,1.78,0.31c0.51,0.2,0.94,0.49,1.29,0.87c0.35,0.38,0.63,0.83,0.82,1.36
	c0.19,0.52,0.31,1.1,0.36,1.73H1147.58z M1157.67,297.24c-0.26-0.8-0.65-1.5-1.17-2.09c-0.52-0.59-1.18-1.05-1.98-1.38
	c-0.8-0.33-1.75-0.5-2.84-0.5c-1.05,0-1.98,0.19-2.77,0.57c-0.8,0.38-1.47,0.89-2.02,1.54c-0.54,0.65-0.95,1.39-1.23,2.24
	c-0.28,0.85-0.41,1.73-0.41,2.67c0,1.08,0.17,2.06,0.52,2.94c0.35,0.87,0.82,1.61,1.42,2.22c0.6,0.61,1.31,1.07,2.11,1.39
	c0.81,0.32,1.67,0.48,2.58,0.48c0.44,0,0.88-0.04,1.33-0.11s0.9-0.19,1.34-0.34c0.44-0.15,0.87-0.36,1.29-0.6
	c0.42-0.25,0.82-0.55,1.19-0.9c0.11-0.1,0.19-0.2,0.23-0.32c0.05-0.11,0.07-0.22,0.07-0.32c0-0.19-0.06-0.35-0.19-0.49
	c-0.13-0.14-0.3-0.21-0.5-0.21c-0.08,0-0.17,0.02-0.27,0.04c-0.1,0.02-0.19,0.08-0.29,0.15c-0.67,0.46-1.34,0.81-2.02,1.05
	c-0.68,0.24-1.35,0.36-2.01,0.36c-0.62,0-1.2-0.1-1.73-0.31c-0.53-0.2-1.01-0.51-1.45-0.92c-0.44-0.4-0.77-0.92-0.99-1.52
	c-0.22-0.61-0.35-1.35-0.37-2.22h9.7c0.31,0,0.54-0.08,0.67-0.24s0.19-0.34,0.19-0.55C1158.07,298.92,1157.93,298.05,1157.67,297.24
	 M1139.68,305.9c0,0.38,0.11,0.66,0.33,0.84c0.21,0.17,0.46,0.26,0.73,0.26c0.27,0,0.52-0.09,0.76-0.28
	c0.23-0.18,0.35-0.46,0.35-0.82v-11.25c0-0.18-0.03-0.34-0.1-0.48c-0.06-0.13-0.15-0.25-0.25-0.34c-0.1-0.09-0.21-0.16-0.34-0.21
	c-0.13-0.04-0.26-0.07-0.39-0.07c-0.27,0-0.52,0.09-0.75,0.27c-0.23,0.18-0.35,0.45-0.35,0.81V305.9z M1141.84,288.01
	c-0.26-0.25-0.62-0.37-1.08-0.37c-0.47,0-0.83,0.13-1.09,0.37c-0.26,0.25-0.38,0.54-0.38,0.88c0,0.33,0.13,0.63,0.38,0.87
	c0.26,0.25,0.62,0.37,1.08,0.37c0.47,0,0.83-0.12,1.09-0.37c0.26-0.25,0.38-0.54,0.38-0.87
	C1142.23,288.55,1142.1,288.26,1141.84,288.01 M1129.51,293.57c-0.29,0-0.51,0.08-0.65,0.25c-0.15,0.17-0.23,0.36-0.23,0.56
	c0,0.21,0.08,0.4,0.23,0.56c0.15,0.17,0.36,0.25,0.65,0.25h1.64v7.49c0,0.87,0.07,1.59,0.21,2.18c0.14,0.59,0.36,1.06,0.65,1.42
	c0.29,0.36,0.66,0.62,1.1,0.78c0.44,0.16,0.97,0.24,1.58,0.24c0.22,0,0.47-0.02,0.77-0.04c0.29-0.03,0.58-0.08,0.84-0.16
	c0.27-0.08,0.48-0.19,0.64-0.33c0.16-0.14,0.25-0.33,0.25-0.56c0-0.15-0.07-0.31-0.2-0.47c-0.13-0.16-0.33-0.24-0.59-0.24
	c-0.18,0-0.4,0.02-0.67,0.06c-0.26,0.04-0.51,0.06-0.75,0.06c-0.4,0-0.72-0.07-0.95-0.2c-0.23-0.13-0.39-0.36-0.5-0.68
	c-0.11-0.32-0.17-0.74-0.19-1.26c-0.02-0.52-0.03-1.19-0.03-2v-6.29h2.43c0.29,0,0.5-0.08,0.65-0.24c0.14-0.16,0.21-0.35,0.21-0.56
	c0-0.21-0.07-0.4-0.21-0.57c-0.15-0.17-0.36-0.26-0.65-0.26h-2.43v-3.85c0-0.31-0.09-0.53-0.27-0.67c-0.17-0.15-0.38-0.22-0.6-0.22
	c-0.25,0-0.49,0.08-0.71,0.24c-0.22,0.16-0.34,0.39-0.36,0.68l-0.17,3.82H1129.51z M1123.84,301.62c-0.03,0.69-0.15,1.28-0.36,1.78
	c-0.21,0.5-0.5,0.9-0.85,1.22c-0.35,0.32-0.76,0.56-1.23,0.73c-0.47,0.17-0.97,0.26-1.5,0.27c-0.4-0.01-0.77-0.06-1.13-0.16
	c-0.36-0.1-0.67-0.25-0.93-0.45c-0.26-0.2-0.47-0.44-0.62-0.74c-0.15-0.29-0.23-0.65-0.23-1.07c0-0.52,0.11-0.96,0.34-1.29
	c0.22-0.34,0.52-0.61,0.9-0.81c0.37-0.2,0.8-0.35,1.28-0.44c0.48-0.09,0.97-0.15,1.48-0.17s1.01-0.04,1.5-0.04
	c0.5,0,0.94,0,1.35-0.02V301.62z M1123.85,298.85c-0.25-0.01-0.51-0.02-0.78-0.03c-0.27-0.01-0.52-0.01-0.75-0.01
	c-1.12,0-2.15,0.08-3.07,0.23c-0.93,0.15-1.72,0.4-2.38,0.75c-0.66,0.35-1.17,0.81-1.54,1.37c-0.36,0.56-0.55,1.26-0.55,2.09
	c0,0.64,0.12,1.21,0.36,1.71c0.24,0.5,0.57,0.93,0.98,1.28c0.42,0.35,0.9,0.61,1.46,0.79c0.56,0.17,1.17,0.27,1.82,0.27
	c0.46,0,0.92-0.06,1.38-0.16c0.46-0.11,0.88-0.27,1.27-0.48c0.39-0.21,0.75-0.46,1.06-0.77c0.31-0.31,0.56-0.66,0.75-1.06v1.25
	c0,0.32,0.11,0.55,0.32,0.7c0.21,0.15,0.44,0.22,0.7,0.22c0.26,0,0.5-0.08,0.73-0.24c0.22-0.16,0.33-0.4,0.33-0.72l0.02-8.17
	c0-0.81-0.12-1.51-0.36-2.09c-0.24-0.58-0.58-1.06-1.03-1.43c-0.44-0.37-0.98-0.65-1.61-0.83c-0.63-0.18-1.34-0.27-2.12-0.27
	c-1.07,0-2.03,0.13-2.88,0.4c-0.85,0.27-1.56,0.67-2.11,1.21c-0.18,0.17-0.27,0.36-0.27,0.57c0,0.21,0.08,0.39,0.23,0.54
	c0.15,0.15,0.34,0.23,0.57,0.23c0.16,0,0.32-0.04,0.48-0.13c0.27-0.16,0.54-0.31,0.81-0.44c0.27-0.13,0.56-0.26,0.86-0.37
	c0.31-0.12,0.65-0.2,1.01-0.25c0.36-0.05,0.78-0.08,1.24-0.08c0.46,0,0.88,0.04,1.26,0.13c0.38,0.09,0.7,0.24,0.98,0.45
	c0.27,0.21,0.48,0.49,0.63,0.84c0.15,0.35,0.22,0.79,0.22,1.3V298.85z M1106.32,306c0,0.17,0.03,0.32,0.09,0.45
	c0.06,0.13,0.13,0.23,0.24,0.31c0.1,0.08,0.21,0.14,0.34,0.18s0.26,0.06,0.39,0.06c0.28,0,0.54-0.08,0.77-0.25
	c0.23-0.17,0.35-0.42,0.35-0.75v-6.66c0-0.65,0.08-1.23,0.25-1.75c0.17-0.52,0.4-0.96,0.72-1.33c0.31-0.36,0.69-0.64,1.15-0.83
	c0.46-0.19,0.98-0.29,1.57-0.29c0.38,0,0.66-0.1,0.84-0.29c0.18-0.19,0.27-0.4,0.27-0.63c0-0.23-0.09-0.45-0.28-0.65
	c-0.18-0.2-0.45-0.3-0.81-0.3c-0.52,0-0.99,0.06-1.39,0.17c-0.4,0.12-0.75,0.29-1.05,0.5c-0.3,0.22-0.55,0.48-0.76,0.8
	c-0.21,0.31-0.38,0.67-0.52,1.06v-1.21c0-0.33-0.09-0.58-0.27-0.76c-0.18-0.18-0.43-0.27-0.75-0.27c-0.33,0-0.6,0.09-0.82,0.27
	c-0.22,0.18-0.33,0.43-0.33,0.76V306z M1102.11,294.58c0-0.34-0.11-0.6-0.33-0.77c-0.22-0.17-0.47-0.25-0.74-0.25
	s-0.52,0.09-0.75,0.26c-0.23,0.17-0.35,0.42-0.35,0.76v7.18c-0.04,0.67-0.18,1.25-0.41,1.73c-0.23,0.48-0.53,0.89-0.89,1.21
	c-0.36,0.32-0.78,0.56-1.25,0.7c-0.48,0.15-0.98,0.23-1.5,0.23c-0.49,0-0.93-0.06-1.33-0.16c-0.4-0.11-0.74-0.31-1.02-0.59
	c-0.28-0.29-0.48-0.65-0.59-1.11c-0.11-0.45-0.17-0.97-0.17-1.56v-7.62c0-0.34-0.11-0.6-0.34-0.77c-0.23-0.17-0.48-0.25-0.75-0.25
	c-0.27,0-0.52,0.08-0.75,0.25c-0.23,0.17-0.34,0.42-0.34,0.77v7.47c0,0.92,0.13,1.71,0.38,2.38c0.26,0.66,0.61,1.21,1.05,1.63
	c0.44,0.42,0.95,0.73,1.53,0.93c0.58,0.2,1.19,0.3,1.84,0.3c0.47,0,0.93-0.06,1.39-0.16c0.46-0.11,0.89-0.27,1.29-0.49
	c0.4-0.21,0.76-0.48,1.08-0.8c0.31-0.32,0.57-0.67,0.76-1.07v1.23c0,0.16,0.03,0.31,0.1,0.43s0.14,0.23,0.25,0.31
	c0.1,0.08,0.21,0.14,0.34,0.18c0.13,0.04,0.26,0.06,0.39,0.06c0.27,0,0.52-0.08,0.75-0.25c0.23-0.17,0.35-0.42,0.35-0.77V294.58z
	 M1081.09,293.57c-0.29,0-0.51,0.08-0.66,0.25c-0.15,0.17-0.22,0.36-0.22,0.56c0,0.21,0.08,0.4,0.22,0.56
	c0.15,0.17,0.37,0.25,0.66,0.25h1.64v7.49c0,0.87,0.07,1.59,0.21,2.18c0.14,0.59,0.36,1.06,0.65,1.42c0.29,0.36,0.66,0.62,1.1,0.78
	c0.44,0.16,0.97,0.24,1.58,0.24c0.21,0,0.47-0.02,0.77-0.04c0.29-0.03,0.58-0.08,0.84-0.16c0.27-0.08,0.48-0.19,0.64-0.33
	c0.16-0.14,0.25-0.33,0.25-0.56c0-0.15-0.07-0.31-0.2-0.47c-0.13-0.16-0.33-0.24-0.59-0.24c-0.18,0-0.4,0.02-0.66,0.06
	c-0.26,0.04-0.51,0.06-0.75,0.06c-0.41,0-0.72-0.07-0.95-0.2c-0.23-0.13-0.39-0.36-0.5-0.68c-0.11-0.32-0.17-0.74-0.19-1.26
	c-0.02-0.52-0.02-1.19-0.02-2v-6.29h2.42c0.29,0,0.51-0.08,0.65-0.24c0.15-0.16,0.22-0.35,0.22-0.56c0-0.21-0.07-0.4-0.22-0.57
	c-0.14-0.17-0.36-0.26-0.65-0.26h-2.42v-3.85c0-0.31-0.09-0.53-0.27-0.67c-0.17-0.15-0.38-0.22-0.6-0.22
	c-0.25,0-0.49,0.08-0.71,0.24c-0.22,0.16-0.34,0.39-0.36,0.68l-0.18,3.82H1081.09z M1068.02,302.98c0.27,0.85,0.67,1.6,1.2,2.25
	c0.53,0.64,1.18,1.15,1.96,1.52c0.78,0.37,1.69,0.56,2.72,0.56c0.44,0,0.92-0.05,1.45-0.14c0.52-0.1,1.01-0.22,1.45-0.38
	c0.44-0.16,0.81-0.35,1.11-0.59c0.3-0.23,0.45-0.49,0.45-0.76c0-0.21-0.06-0.39-0.19-0.54c-0.13-0.15-0.31-0.23-0.52-0.23
	c-0.12,0-0.25,0.03-0.38,0.08c-0.55,0.28-1.08,0.5-1.57,0.65c-0.5,0.15-1,0.23-1.49,0.23c-0.8,0-1.48-0.15-2.04-0.46
	c-0.56-0.31-1.01-0.73-1.34-1.26c-0.33-0.53-0.56-1.11-0.71-1.73c-0.14-0.63-0.21-1.27-0.21-1.92c0-0.82,0.1-1.56,0.31-2.2
	c0.21-0.65,0.5-1.2,0.88-1.65c0.38-0.46,0.83-0.81,1.36-1.06c0.53-0.25,1.11-0.37,1.75-0.37c0.96,0,1.89,0.26,2.79,0.79
	c0.14,0.06,0.26,0.08,0.37,0.08c0.23,0,0.42-0.08,0.56-0.25s0.2-0.35,0.2-0.56c0-0.27-0.13-0.52-0.4-0.73
	c-0.27-0.22-0.6-0.4-1.01-0.56c-0.41-0.15-0.85-0.27-1.34-0.35c-0.48-0.08-0.94-0.12-1.36-0.12c-1.02,0-1.93,0.19-2.73,0.56
	c-0.79,0.37-1.46,0.88-2.01,1.52c-0.55,0.64-0.96,1.39-1.25,2.23c-0.28,0.85-0.42,1.74-0.42,2.69
	C1067.61,301.23,1067.75,302.13,1068.02,302.98 M1062.26,301.62c-0.03,0.69-0.15,1.28-0.36,1.78c-0.21,0.5-0.5,0.9-0.85,1.22
	c-0.35,0.32-0.76,0.56-1.23,0.73c-0.47,0.17-0.97,0.26-1.5,0.27c-0.4-0.01-0.77-0.06-1.13-0.16c-0.36-0.1-0.67-0.25-0.93-0.45
	c-0.26-0.2-0.47-0.44-0.62-0.74c-0.15-0.29-0.23-0.65-0.23-1.07c0-0.52,0.12-0.96,0.34-1.29c0.22-0.34,0.52-0.61,0.9-0.81
	c0.37-0.2,0.8-0.35,1.28-0.44c0.48-0.09,0.97-0.15,1.48-0.17c0.51-0.03,1.01-0.04,1.5-0.04c0.5,0,0.94,0,1.35-0.02V301.62z
	 M1062.27,298.85c-0.25-0.01-0.51-0.02-0.78-0.03c-0.27-0.01-0.52-0.01-0.75-0.01c-1.12,0-2.15,0.08-3.07,0.23
	c-0.93,0.15-1.72,0.4-2.38,0.75c-0.66,0.35-1.17,0.81-1.54,1.37c-0.36,0.56-0.55,1.26-0.55,2.09c0,0.64,0.12,1.21,0.36,1.71
	c0.24,0.5,0.57,0.93,0.98,1.28c0.42,0.35,0.9,0.61,1.46,0.79c0.56,0.17,1.17,0.27,1.82,0.27c0.46,0,0.92-0.06,1.38-0.16
	c0.46-0.11,0.88-0.27,1.27-0.48c0.39-0.21,0.75-0.46,1.06-0.77c0.31-0.31,0.56-0.66,0.75-1.06v1.25c0,0.32,0.11,0.55,0.32,0.7
	c0.21,0.15,0.44,0.22,0.7,0.22c0.26,0,0.5-0.08,0.73-0.24c0.22-0.16,0.33-0.4,0.33-0.72l0.02-8.17c0-0.81-0.12-1.51-0.36-2.09
	c-0.24-0.58-0.58-1.06-1.03-1.43c-0.44-0.37-0.98-0.65-1.61-0.83c-0.63-0.18-1.34-0.27-2.12-0.27c-1.07,0-2.03,0.13-2.88,0.4
	c-0.85,0.27-1.56,0.67-2.11,1.21c-0.18,0.17-0.27,0.36-0.27,0.57c0,0.21,0.08,0.39,0.23,0.54c0.15,0.15,0.34,0.23,0.57,0.23
	c0.16,0,0.32-0.04,0.48-0.13c0.27-0.16,0.54-0.31,0.81-0.44s0.56-0.26,0.86-0.37c0.31-0.12,0.65-0.2,1.01-0.25
	c0.36-0.05,0.78-0.08,1.24-0.08c0.46,0,0.88,0.04,1.26,0.13c0.38,0.09,0.7,0.24,0.98,0.45c0.27,0.21,0.48,0.49,0.63,0.84
	c0.15,0.35,0.22,0.79,0.22,1.3V298.85z M1051.1,295.15c0.29,0,0.5-0.08,0.65-0.24c0.14-0.16,0.21-0.35,0.21-0.56
	c0-0.2-0.07-0.38-0.21-0.54c-0.15-0.16-0.36-0.25-0.65-0.25h-2.33v-0.43c0-0.79,0.02-1.44,0.05-1.97c0.04-0.52,0.11-0.94,0.24-1.25
	s0.3-0.53,0.52-0.66c0.23-0.13,0.53-0.2,0.91-0.2c0.13,0,0.26,0.01,0.38,0.03c0.12,0.02,0.23,0.04,0.35,0.05
	c0.11,0.02,0.23,0.04,0.35,0.06c0.12,0.02,0.26,0.03,0.41,0.03c0.23,0,0.42-0.08,0.54-0.25c0.13-0.16,0.19-0.34,0.19-0.54
	c0-0.15-0.04-0.3-0.13-0.44c-0.09-0.14-0.23-0.24-0.41-0.29c-0.37-0.1-0.74-0.18-1.11-0.24c-0.37-0.06-0.73-0.1-1.07-0.1
	c-0.52,0-0.98,0.08-1.4,0.24c-0.42,0.16-0.78,0.43-1.07,0.79c-0.3,0.37-0.52,0.85-0.68,1.45c-0.16,0.6-0.24,1.34-0.24,2.22v1.5
	h-1.83c-0.29,0-0.5,0.08-0.65,0.25c-0.14,0.16-0.21,0.34-0.21,0.54c0,0.2,0.07,0.38,0.21,0.55c0.15,0.17,0.36,0.25,0.65,0.25h1.83
	v10.78c0,0.18,0.03,0.34,0.1,0.48s0.14,0.25,0.24,0.33c0.1,0.08,0.21,0.15,0.34,0.19c0.13,0.05,0.26,0.07,0.39,0.07
	c0.28,0,0.53-0.09,0.76-0.27c0.23-0.18,0.34-0.45,0.34-0.8v-10.78H1051.1z M1023.65,299.22c0.04-0.58,0.17-1.12,0.39-1.64
	c0.21-0.52,0.5-0.97,0.85-1.36c0.35-0.39,0.77-0.7,1.26-0.93c0.49-0.23,1.03-0.34,1.61-0.34c0.68,0,1.27,0.1,1.78,0.31
	c0.51,0.2,0.94,0.49,1.3,0.87c0.35,0.38,0.62,0.83,0.82,1.36c0.19,0.52,0.32,1.1,0.36,1.73H1023.65z M1033.73,297.24
	c-0.26-0.8-0.65-1.5-1.17-2.09c-0.52-0.59-1.18-1.05-1.98-1.38c-0.8-0.33-1.75-0.5-2.84-0.5c-1.05,0-1.97,0.19-2.77,0.57
	c-0.8,0.38-1.47,0.89-2.02,1.54c-0.54,0.65-0.95,1.39-1.23,2.24c-0.28,0.85-0.41,1.73-0.41,2.67c0,1.08,0.17,2.06,0.52,2.94
	c0.35,0.87,0.83,1.61,1.42,2.22c0.6,0.61,1.31,1.07,2.11,1.39c0.81,0.32,1.67,0.48,2.59,0.48c0.43,0,0.88-0.04,1.33-0.11
	c0.45-0.07,0.9-0.19,1.34-0.34c0.44-0.15,0.87-0.36,1.29-0.6c0.42-0.25,0.82-0.55,1.19-0.9c0.11-0.1,0.19-0.2,0.23-0.32
	c0.05-0.11,0.07-0.22,0.07-0.32c0-0.19-0.06-0.35-0.19-0.49c-0.13-0.14-0.29-0.21-0.5-0.21c-0.08,0-0.17,0.02-0.26,0.04
	c-0.1,0.02-0.19,0.08-0.29,0.15c-0.67,0.46-1.34,0.81-2.02,1.05c-0.68,0.24-1.35,0.36-2.01,0.36c-0.62,0-1.2-0.1-1.73-0.31
	c-0.53-0.2-1.01-0.51-1.45-0.92c-0.44-0.4-0.77-0.92-0.99-1.52c-0.22-0.61-0.35-1.35-0.37-2.22h9.7c0.32,0,0.54-0.08,0.67-0.24
	c0.13-0.16,0.2-0.34,0.2-0.55C1034.13,298.92,1033.99,298.05,1033.73,297.24 M1017.91,288.01c-0.26-0.25-0.62-0.37-1.09-0.37
	c-0.46,0-0.82,0.13-1.08,0.37c-0.26,0.25-0.39,0.54-0.39,0.88c0,0.33,0.13,0.63,0.39,0.87c0.26,0.25,0.61,0.37,1.08,0.37
	c0.46,0,0.83-0.12,1.09-0.37c0.26-0.25,0.39-0.54,0.39-0.87C1018.31,288.55,1018.17,288.26,1017.91,288.01 M1017.93,294.65
	c0-0.18-0.03-0.34-0.1-0.48c-0.06-0.13-0.14-0.25-0.24-0.34c-0.1-0.09-0.21-0.16-0.34-0.21c-0.13-0.04-0.26-0.07-0.39-0.07
	c-0.28,0-0.54,0.09-0.77,0.27c-0.23,0.18-0.35,0.45-0.35,0.81v13.33c0,0.56-0.02,1-0.06,1.33c-0.04,0.32-0.12,0.56-0.26,0.73
	c-0.14,0.16-0.35,0.27-0.63,0.31c-0.27,0.05-0.65,0.07-1.12,0.07c-0.24,0-0.42,0.08-0.55,0.25c-0.12,0.16-0.18,0.33-0.18,0.52
	c0,0.16,0.05,0.31,0.14,0.45c0.1,0.14,0.24,0.22,0.44,0.24c0,0.03,0.03,0.05,0.08,0.08c0.06,0.02,0.12,0.04,0.21,0.07
	c0.08,0.02,0.16,0.04,0.25,0.05c0.08,0.01,0.16,0.01,0.22,0.01c0.84,0,1.5-0.08,1.99-0.24c0.48-0.16,0.85-0.43,1.09-0.79
	c0.25-0.37,0.4-0.85,0.46-1.43c0.06-0.59,0.1-1.3,0.1-2.14V294.65z M998.15,306c0,0.17,0.03,0.32,0.09,0.45s0.14,0.23,0.24,0.31
	c0.1,0.08,0.21,0.14,0.34,0.18s0.26,0.06,0.39,0.06c0.28,0,0.54-0.08,0.77-0.25c0.23-0.17,0.35-0.42,0.35-0.75v-6.66
	c0-0.65,0.08-1.23,0.25-1.75s0.4-0.96,0.72-1.33c0.31-0.36,0.7-0.64,1.15-0.83c0.46-0.19,0.98-0.29,1.56-0.29
	c0.38,0,0.66-0.1,0.84-0.29c0.18-0.19,0.27-0.4,0.27-0.63c0-0.23-0.1-0.45-0.28-0.65c-0.19-0.2-0.46-0.3-0.81-0.3
	c-0.52,0-0.99,0.06-1.39,0.17c-0.4,0.12-0.75,0.29-1.05,0.5c-0.3,0.22-0.55,0.48-0.76,0.8c-0.21,0.31-0.38,0.67-0.52,1.06v-1.21
	c0-0.33-0.09-0.58-0.27-0.76c-0.18-0.18-0.43-0.27-0.75-0.27c-0.33,0-0.6,0.09-0.82,0.27c-0.22,0.18-0.33,0.43-0.33,0.76V306z
	 M984.02,298.47c0.16-0.65,0.42-1.23,0.77-1.75c0.35-0.52,0.81-0.94,1.36-1.27c0.56-0.33,1.22-0.5,2-0.5c0.79,0,1.46,0.16,2.01,0.5
	c0.56,0.33,1.01,0.75,1.36,1.27c0.35,0.52,0.6,1.1,0.77,1.75c0.16,0.65,0.25,1.25,0.25,1.81c0,0.58-0.08,1.19-0.25,1.83
	c-0.16,0.64-0.42,1.23-0.77,1.75c-0.35,0.52-0.8,0.94-1.36,1.27c-0.56,0.33-1.23,0.5-2.01,0.5c-0.78,0-1.44-0.17-2-0.5
	c-0.56-0.33-1.01-0.75-1.36-1.27c-0.35-0.52-0.61-1.1-0.77-1.75c-0.16-0.64-0.24-1.25-0.24-1.83
	C983.78,299.72,983.86,299.12,984.02,298.47 M981.87,302.83c0.27,0.85,0.68,1.61,1.23,2.27c0.55,0.67,1.25,1.2,2.09,1.6
	c0.84,0.4,1.83,0.61,2.97,0.61c1.14,0,2.13-0.2,2.98-0.61c0.85-0.4,1.54-0.93,2.09-1.6c0.55-0.66,0.96-1.42,1.23-2.27
	c0.27-0.85,0.41-1.7,0.41-2.55c0-0.83-0.13-1.67-0.41-2.53c-0.27-0.86-0.68-1.61-1.23-2.28c-0.55-0.66-1.25-1.2-2.09-1.6
	s-1.84-0.6-2.98-0.6c-1.14,0-2.13,0.2-2.97,0.6s-1.54,0.94-2.09,1.6c-0.55,0.67-0.96,1.42-1.23,2.28c-0.27,0.85-0.41,1.69-0.41,2.53
	C981.46,301.13,981.6,301.98,981.87,302.83 M968.27,298.47c0.16-0.65,0.42-1.23,0.77-1.75c0.35-0.52,0.81-0.94,1.36-1.27
	c0.56-0.33,1.22-0.5,2-0.5c0.79,0,1.46,0.16,2.02,0.5c0.56,0.33,1.01,0.75,1.35,1.27c0.35,0.52,0.61,1.1,0.77,1.75
	c0.16,0.65,0.24,1.25,0.24,1.81c0,0.58-0.08,1.19-0.24,1.83c-0.16,0.64-0.42,1.23-0.77,1.75c-0.35,0.52-0.8,0.94-1.35,1.27
	c-0.56,0.33-1.23,0.5-2.02,0.5c-0.78,0-1.44-0.17-2-0.5c-0.56-0.33-1.01-0.75-1.36-1.27c-0.35-0.52-0.61-1.1-0.77-1.75
	c-0.16-0.64-0.25-1.25-0.25-1.83C968.02,299.72,968.1,299.12,968.27,298.47 M966.11,302.83c0.27,0.85,0.68,1.61,1.23,2.27
	c0.55,0.67,1.25,1.2,2.09,1.6c0.84,0.4,1.83,0.61,2.97,0.61s2.13-0.2,2.98-0.61c0.85-0.4,1.54-0.93,2.09-1.6
	c0.55-0.66,0.96-1.42,1.23-2.27c0.27-0.85,0.41-1.7,0.41-2.55c0-0.83-0.13-1.67-0.41-2.53c-0.27-0.86-0.68-1.61-1.23-2.28
	c-0.55-0.66-1.25-1.2-2.09-1.6c-0.85-0.4-1.84-0.6-2.98-0.6s-2.13,0.2-2.97,0.6s-1.54,0.94-2.09,1.6c-0.55,0.67-0.96,1.42-1.23,2.28
	c-0.27,0.85-0.4,1.69-0.4,2.53C965.7,301.13,965.84,301.98,966.11,302.83 M958.24,295.36c0.53,0.28,0.96,0.65,1.28,1.13
	c0.33,0.47,0.56,1.02,0.71,1.63c0.14,0.61,0.21,1.25,0.21,1.92c0,0.76-0.07,1.48-0.2,2.15c-0.13,0.68-0.37,1.27-0.71,1.78
	c-0.33,0.5-0.78,0.91-1.34,1.21c-0.56,0.3-1.27,0.45-2.11,0.45c-0.51,0-0.95-0.08-1.33-0.24c-0.38-0.16-0.71-0.38-0.99-0.65
	c-0.28-0.28-0.51-0.6-0.7-0.96c-0.18-0.36-0.33-0.75-0.44-1.15c-0.12-0.4-0.19-0.83-0.24-1.29c-0.05-0.45-0.07-0.86-0.07-1.22
	c0-0.63,0.07-1.26,0.2-1.87c0.13-0.61,0.36-1.17,0.67-1.66c0.31-0.5,0.72-0.89,1.23-1.19c0.51-0.3,1.13-0.45,1.89-0.45
	C957.06,294.95,957.71,295.09,958.24,295.36 M962.66,288.67c0-0.33-0.12-0.57-0.35-0.74c-0.23-0.17-0.48-0.25-0.75-0.25
	c-0.27,0-0.52,0.08-0.74,0.24c-0.22,0.16-0.33,0.41-0.33,0.75v7.07c-0.24-0.42-0.54-0.79-0.9-1.1c-0.36-0.31-0.75-0.56-1.17-0.77
	c-0.42-0.2-0.86-0.35-1.33-0.45c-0.46-0.1-0.93-0.15-1.39-0.15c-1,0-1.86,0.19-2.59,0.58c-0.72,0.38-1.31,0.9-1.77,1.54
	c-0.46,0.64-0.8,1.38-1.02,2.22s-0.33,1.71-0.33,2.62c0,0.87,0.11,1.73,0.33,2.58s0.55,1.61,1,2.28c0.45,0.67,1.03,1.21,1.74,1.61
	c0.71,0.4,1.56,0.61,2.54,0.61c1,0,1.91-0.2,2.71-0.59c0.8-0.39,1.52-1.04,2.14-1.95v0.21c0.01,0.13,0.01,0.27,0.01,0.43v0.61
	c0.01,0.16,0.05,0.31,0.11,0.43c0.06,0.12,0.15,0.22,0.25,0.31c0.1,0.09,0.22,0.15,0.35,0.19s0.26,0.06,0.39,0.06
	c0.27,0,0.52-0.08,0.74-0.25c0.22-0.17,0.33-0.42,0.33-0.77V288.67z M933.34,306c0,0.17,0.03,0.32,0.09,0.45
	c0.06,0.13,0.13,0.23,0.23,0.31c0.1,0.08,0.21,0.14,0.34,0.18c0.13,0.04,0.26,0.06,0.39,0.06c0.28,0,0.54-0.08,0.77-0.25
	c0.23-0.17,0.35-0.42,0.35-0.75v-6.66c0-0.65,0.08-1.23,0.25-1.75c0.17-0.52,0.41-0.96,0.72-1.33c0.31-0.36,0.69-0.64,1.15-0.83
	c0.46-0.19,0.98-0.29,1.57-0.29c0.38,0,0.66-0.1,0.84-0.29c0.18-0.19,0.27-0.4,0.27-0.63c0-0.23-0.09-0.45-0.28-0.65
	s-0.45-0.3-0.81-0.3c-0.52,0-0.99,0.06-1.39,0.17c-0.4,0.12-0.75,0.29-1.05,0.5c-0.3,0.22-0.55,0.48-0.76,0.8
	c-0.21,0.31-0.38,0.67-0.52,1.06v-1.21c0-0.33-0.09-0.58-0.27-0.76c-0.18-0.18-0.43-0.27-0.75-0.27c-0.33,0-0.6,0.09-0.82,0.27
	c-0.22,0.18-0.33,0.43-0.33,0.76V306z M919.5,299.22c0.04-0.58,0.17-1.12,0.39-1.64c0.21-0.52,0.5-0.97,0.85-1.36
	s0.77-0.7,1.26-0.93c0.49-0.23,1.03-0.34,1.61-0.34c0.68,0,1.27,0.1,1.78,0.31c0.51,0.2,0.94,0.49,1.3,0.87
	c0.35,0.38,0.62,0.83,0.82,1.36c0.19,0.52,0.32,1.1,0.36,1.73H919.5z M929.58,297.24c-0.26-0.8-0.65-1.5-1.17-2.09
	c-0.52-0.59-1.18-1.05-1.98-1.38c-0.8-0.33-1.75-0.5-2.84-0.5c-1.05,0-1.97,0.19-2.77,0.57c-0.8,0.38-1.47,0.89-2.02,1.54
	c-0.54,0.65-0.95,1.39-1.23,2.24c-0.28,0.85-0.41,1.73-0.41,2.67c0,1.08,0.17,2.06,0.52,2.94c0.35,0.87,0.83,1.61,1.42,2.22
	c0.6,0.61,1.31,1.07,2.11,1.39s1.67,0.48,2.59,0.48c0.43,0,0.88-0.04,1.33-0.11c0.45-0.07,0.9-0.19,1.34-0.34
	c0.44-0.15,0.87-0.36,1.29-0.6c0.42-0.25,0.82-0.55,1.19-0.9c0.11-0.1,0.19-0.2,0.23-0.32c0.05-0.11,0.07-0.22,0.07-0.32
	c0-0.19-0.06-0.35-0.19-0.49c-0.13-0.14-0.29-0.21-0.5-0.21c-0.08,0-0.17,0.02-0.26,0.04c-0.1,0.02-0.19,0.08-0.29,0.15
	c-0.67,0.46-1.34,0.81-2.02,1.05c-0.68,0.24-1.35,0.36-2.01,0.36c-0.62,0-1.2-0.1-1.73-0.31c-0.53-0.2-1.01-0.51-1.45-0.92
	c-0.44-0.4-0.77-0.92-0.99-1.52c-0.22-0.61-0.35-1.35-0.37-2.22h9.7c0.32,0,0.54-0.08,0.67-0.24s0.2-0.34,0.2-0.55
	C929.98,298.92,929.84,298.05,929.58,297.24 M911.89,307.45c0,0.66-0.1,1.21-0.31,1.65c-0.21,0.44-0.51,0.79-0.89,1.06
	c-0.38,0.27-0.85,0.46-1.38,0.57c-0.54,0.11-1.13,0.17-1.78,0.17c-0.44,0-0.84-0.03-1.19-0.09c-0.35-0.06-0.67-0.14-0.96-0.24
	c-0.29-0.11-0.57-0.22-0.82-0.35c-0.25-0.13-0.5-0.27-0.76-0.42c-0.16-0.08-0.32-0.12-0.46-0.12c-0.23,0-0.43,0.08-0.59,0.24
	c-0.16,0.15-0.24,0.34-0.24,0.55c0,0.22,0.09,0.42,0.27,0.6c0.24,0.26,0.52,0.49,0.82,0.69c0.31,0.2,0.65,0.37,1.04,0.51
	c0.39,0.14,0.83,0.25,1.32,0.32c0.49,0.07,1.05,0.11,1.66,0.11c0.97,0,1.84-0.1,2.62-0.3c0.78-0.21,1.45-0.53,2.01-0.96
	c0.56-0.44,0.98-1,1.29-1.68c0.3-0.68,0.45-1.5,0.45-2.45v-12.72c0-0.33-0.1-0.58-0.31-0.75c-0.21-0.17-0.44-0.25-0.71-0.25
	c-0.25,0-0.47,0.08-0.68,0.23c-0.21,0.15-0.32,0.38-0.34,0.68v1.48c-0.28-0.5-0.6-0.92-0.96-1.26c-0.36-0.35-0.74-0.62-1.15-0.83
	c-0.41-0.21-0.85-0.37-1.31-0.46c-0.47-0.09-0.95-0.13-1.46-0.13c-0.98,0-1.84,0.19-2.56,0.57c-0.72,0.38-1.32,0.89-1.8,1.53
	c-0.47,0.64-0.83,1.39-1.06,2.25c-0.23,0.86-0.35,1.77-0.35,2.73c0,0.9,0.12,1.75,0.35,2.54c0.23,0.79,0.59,1.49,1.07,2.1
	c0.48,0.61,1.1,1.1,1.85,1.46s1.65,0.55,2.7,0.55c0.44,0,0.89-0.05,1.33-0.15c0.44-0.1,0.86-0.26,1.26-0.47
	c0.4-0.21,0.77-0.48,1.11-0.8c0.34-0.33,0.64-0.73,0.89-1.22V307.45z M911.53,302.53c-0.23,0.65-0.55,1.19-0.94,1.62
	c-0.39,0.43-0.84,0.75-1.35,0.97c-0.5,0.22-1.02,0.33-1.56,0.33c-0.52,0-1.02-0.1-1.5-0.31c-0.48-0.21-0.91-0.52-1.28-0.94
	c-0.37-0.42-0.67-0.95-0.88-1.59c-0.22-0.64-0.33-1.42-0.33-2.33c0-0.76,0.06-1.47,0.19-2.12c0.13-0.65,0.35-1.21,0.66-1.68
	c0.31-0.47,0.72-0.84,1.23-1.11c0.51-0.27,1.14-0.4,1.89-0.4c0.8,0,1.46,0.15,2.01,0.46c0.54,0.31,0.98,0.71,1.31,1.22
	c0.33,0.51,0.56,1.08,0.71,1.72c0.14,0.64,0.21,1.29,0.21,1.95C911.88,301.14,911.76,301.88,911.53,302.53 M886.53,305.98
	c0,0.34,0.11,0.6,0.33,0.77c0.22,0.17,0.47,0.26,0.74,0.26c0.27,0,0.52-0.08,0.75-0.26c0.23-0.17,0.35-0.43,0.35-0.77v-6.78
	c0-0.73,0.11-1.37,0.32-1.91c0.21-0.54,0.5-0.98,0.87-1.3c0.37-0.33,0.8-0.58,1.29-0.76c0.49-0.18,1.01-0.27,1.57-0.27
	c0.41,0,0.8,0.07,1.17,0.2c0.37,0.13,0.7,0.35,0.99,0.63c0.29,0.29,0.52,0.63,0.69,1.05s0.26,0.92,0.26,1.5v7.64
	c0,0.34,0.11,0.6,0.33,0.77c0.22,0.17,0.47,0.26,0.74,0.26c0.27,0,0.52-0.08,0.75-0.26c0.23-0.17,0.35-0.43,0.35-0.77v-7.46
	c0-0.93-0.13-1.73-0.38-2.39c-0.26-0.66-0.61-1.2-1.05-1.63c-0.44-0.42-0.96-0.74-1.54-0.94c-0.58-0.2-1.19-0.3-1.84-0.3
	c-0.47,0-0.94,0.06-1.4,0.18c-0.46,0.12-0.89,0.3-1.3,0.52c-0.4,0.23-0.76,0.48-1.08,0.78c-0.31,0.29-0.56,0.65-0.75,1.05
	c0.08-0.76,0.04-1.32-0.12-1.68c-0.15-0.36-0.47-0.54-0.96-0.54c-0.27,0-0.52,0.08-0.75,0.25c-0.23,0.17-0.35,0.41-0.35,0.74V305.98
	z M880.29,301.62c-0.03,0.69-0.15,1.28-0.36,1.78c-0.21,0.5-0.5,0.9-0.85,1.22c-0.35,0.32-0.76,0.56-1.23,0.73
	c-0.47,0.17-0.97,0.26-1.5,0.27c-0.4-0.01-0.78-0.06-1.13-0.16c-0.36-0.1-0.67-0.25-0.93-0.45c-0.26-0.2-0.47-0.44-0.62-0.74
	c-0.15-0.29-0.23-0.65-0.23-1.07c0-0.52,0.11-0.96,0.34-1.29c0.23-0.34,0.53-0.61,0.9-0.81c0.37-0.2,0.8-0.35,1.28-0.44
	c0.48-0.09,0.97-0.15,1.48-0.17c0.51-0.03,1.01-0.04,1.5-0.04c0.49,0,0.94,0,1.35-0.02V301.62z M880.31,298.85
	c-0.25-0.01-0.52-0.02-0.78-0.03c-0.27-0.01-0.52-0.01-0.75-0.01c-1.12,0-2.14,0.08-3.07,0.23c-0.92,0.15-1.72,0.4-2.38,0.75
	c-0.66,0.35-1.17,0.81-1.54,1.37c-0.37,0.56-0.55,1.26-0.55,2.09c0,0.64,0.12,1.21,0.36,1.71c0.24,0.5,0.57,0.93,0.98,1.28
	c0.42,0.35,0.9,0.61,1.47,0.79c0.56,0.17,1.17,0.27,1.82,0.27c0.46,0,0.92-0.06,1.38-0.16c0.46-0.11,0.88-0.27,1.27-0.48
	c0.39-0.21,0.75-0.46,1.06-0.77c0.31-0.31,0.56-0.66,0.75-1.06v1.25c0,0.32,0.11,0.55,0.32,0.7c0.21,0.15,0.45,0.22,0.7,0.22
	c0.27,0,0.5-0.08,0.73-0.24c0.22-0.16,0.33-0.4,0.33-0.72l0.01-8.17c0-0.81-0.12-1.51-0.36-2.09c-0.24-0.58-0.58-1.06-1.03-1.43
	c-0.45-0.37-0.98-0.65-1.61-0.83c-0.63-0.18-1.33-0.27-2.12-0.27c-1.06,0-2.02,0.13-2.87,0.4c-0.85,0.27-1.56,0.67-2.11,1.21
	c-0.18,0.17-0.27,0.36-0.27,0.57c0,0.21,0.08,0.39,0.23,0.54c0.15,0.15,0.35,0.23,0.57,0.23c0.16,0,0.32-0.04,0.48-0.13
	c0.27-0.16,0.54-0.31,0.81-0.44s0.56-0.26,0.86-0.37c0.31-0.12,0.64-0.2,1.01-0.25c0.36-0.05,0.78-0.08,1.24-0.08
	c0.46,0,0.88,0.04,1.26,0.13c0.38,0.09,0.71,0.24,0.98,0.45c0.27,0.21,0.48,0.49,0.63,0.84c0.15,0.35,0.23,0.79,0.23,1.3V298.85z
	 M865.99,305.9c0,0.38,0.11,0.66,0.33,0.84c0.22,0.17,0.46,0.26,0.73,0.26c0.27,0,0.52-0.09,0.76-0.28
	c0.24-0.18,0.35-0.46,0.35-0.82v-17.14c0-0.18-0.03-0.34-0.1-0.47c-0.06-0.14-0.14-0.25-0.24-0.34c-0.1-0.09-0.21-0.16-0.34-0.2
	c-0.13-0.05-0.26-0.07-0.39-0.07c-0.27,0-0.52,0.09-0.75,0.27c-0.23,0.18-0.35,0.45-0.35,0.81V305.9z M847.9,293.57
	c-0.29,0-0.51,0.08-0.66,0.25c-0.15,0.17-0.22,0.36-0.22,0.56c0,0.21,0.07,0.4,0.22,0.56c0.15,0.17,0.37,0.25,0.66,0.25h1.64v7.49
	c0,0.87,0.07,1.59,0.21,2.18c0.14,0.59,0.36,1.06,0.65,1.42c0.29,0.36,0.66,0.62,1.11,0.78c0.44,0.16,0.97,0.24,1.57,0.24
	c0.22,0,0.47-0.02,0.77-0.04c0.29-0.03,0.57-0.08,0.84-0.16c0.27-0.08,0.48-0.19,0.65-0.33c0.16-0.14,0.24-0.33,0.24-0.56
	c0-0.15-0.06-0.31-0.19-0.47c-0.13-0.16-0.33-0.24-0.59-0.24c-0.18,0-0.4,0.02-0.66,0.06c-0.27,0.04-0.51,0.06-0.75,0.06
	c-0.41,0-0.73-0.07-0.95-0.2c-0.23-0.13-0.39-0.36-0.5-0.68s-0.17-0.74-0.19-1.26c-0.02-0.52-0.03-1.19-0.03-2v-6.29h2.43
	c0.29,0,0.51-0.08,0.65-0.24c0.15-0.16,0.22-0.35,0.22-0.56c0-0.21-0.07-0.4-0.22-0.57c-0.14-0.17-0.36-0.26-0.65-0.26h-2.43v-3.85
	c0-0.31-0.09-0.53-0.26-0.67c-0.18-0.15-0.38-0.22-0.61-0.22c-0.25,0-0.49,0.08-0.71,0.24c-0.22,0.16-0.34,0.39-0.36,0.68
	l-0.17,3.82H847.9z M834.62,299.22c0.04-0.58,0.17-1.12,0.39-1.64c0.21-0.52,0.5-0.97,0.85-1.36c0.35-0.39,0.77-0.7,1.26-0.93
	c0.49-0.23,1.02-0.34,1.61-0.34c0.68,0,1.27,0.1,1.78,0.31c0.51,0.2,0.94,0.49,1.3,0.87c0.35,0.38,0.62,0.83,0.82,1.36
	c0.19,0.52,0.31,1.1,0.36,1.73H834.62z M844.7,297.24c-0.26-0.8-0.65-1.5-1.17-2.09c-0.52-0.59-1.18-1.05-1.98-1.38
	c-0.8-0.33-1.75-0.5-2.84-0.5c-1.05,0-1.98,0.19-2.77,0.57c-0.8,0.38-1.47,0.89-2.02,1.54c-0.54,0.65-0.95,1.39-1.23,2.24
	c-0.28,0.85-0.41,1.73-0.41,2.67c0,1.08,0.17,2.06,0.52,2.94c0.35,0.87,0.83,1.61,1.42,2.22c0.6,0.61,1.31,1.07,2.11,1.39
	s1.67,0.48,2.58,0.48c0.44,0,0.88-0.04,1.33-0.11c0.45-0.07,0.9-0.19,1.35-0.34c0.44-0.15,0.87-0.36,1.29-0.6
	c0.42-0.25,0.82-0.55,1.19-0.9c0.11-0.1,0.19-0.2,0.23-0.32c0.05-0.11,0.07-0.22,0.07-0.32c0-0.19-0.06-0.35-0.19-0.49
	c-0.13-0.14-0.29-0.21-0.5-0.21c-0.08,0-0.17,0.02-0.26,0.04c-0.1,0.02-0.19,0.08-0.29,0.15c-0.67,0.46-1.34,0.81-2.02,1.05
	c-0.68,0.24-1.35,0.36-2.01,0.36c-0.62,0-1.2-0.1-1.73-0.31c-0.53-0.2-1.01-0.51-1.45-0.92c-0.44-0.4-0.77-0.92-0.99-1.52
	c-0.22-0.61-0.35-1.35-0.37-2.22h9.7c0.31,0,0.54-0.08,0.67-0.24s0.19-0.34,0.19-0.55C845.1,298.92,844.96,298.05,844.7,297.24
	 M826.72,305.9c0,0.38,0.11,0.66,0.33,0.84c0.22,0.17,0.46,0.26,0.73,0.26c0.27,0,0.53-0.09,0.76-0.28
	c0.23-0.18,0.35-0.46,0.35-0.82v-11.25c0-0.18-0.03-0.34-0.1-0.48c-0.06-0.13-0.15-0.25-0.25-0.34c-0.1-0.09-0.21-0.16-0.34-0.21
	c-0.13-0.04-0.26-0.07-0.39-0.07c-0.27,0-0.52,0.09-0.75,0.27c-0.23,0.18-0.35,0.45-0.35,0.81V305.9z M828.88,288.01
	c-0.26-0.25-0.61-0.37-1.08-0.37c-0.47,0-0.83,0.13-1.09,0.37c-0.26,0.25-0.38,0.54-0.38,0.88c0,0.33,0.13,0.63,0.38,0.87
	c0.26,0.25,0.62,0.37,1.08,0.37c0.47,0,0.83-0.12,1.09-0.37c0.26-0.25,0.38-0.54,0.38-0.87
	C829.26,288.55,829.14,288.26,828.88,288.01 M810.98,305.98c0,0.34,0.11,0.6,0.33,0.77c0.22,0.17,0.47,0.26,0.74,0.26
	c0.27,0,0.52-0.08,0.75-0.26c0.23-0.17,0.35-0.43,0.35-0.77v-6.78c0-0.73,0.11-1.37,0.32-1.91c0.21-0.54,0.5-0.98,0.88-1.3
	c0.37-0.33,0.8-0.58,1.29-0.76c0.49-0.18,1.02-0.27,1.58-0.27c0.4,0,0.79,0.07,1.17,0.2c0.37,0.13,0.7,0.35,0.99,0.63
	c0.29,0.29,0.52,0.63,0.69,1.05c0.17,0.42,0.26,0.92,0.26,1.5v7.64c0,0.34,0.11,0.6,0.33,0.77c0.22,0.17,0.47,0.26,0.74,0.26
	c0.27,0,0.52-0.08,0.75-0.26c0.23-0.17,0.35-0.43,0.35-0.77v-7.46c0-0.93-0.13-1.73-0.38-2.39c-0.26-0.66-0.61-1.2-1.05-1.63
	c-0.44-0.42-0.95-0.74-1.53-0.94c-0.58-0.2-1.19-0.3-1.84-0.3c-0.47,0-0.94,0.06-1.4,0.18c-0.46,0.12-0.89,0.3-1.29,0.52
	c-0.4,0.23-0.76,0.48-1.08,0.78c-0.32,0.29-0.57,0.65-0.75,1.05c0.07-0.76,0.03-1.32-0.12-1.68c-0.15-0.36-0.47-0.54-0.96-0.54
	c-0.27,0-0.52,0.08-0.75,0.25c-0.23,0.17-0.35,0.41-0.35,0.74V305.98z M796.66,305.9c0,0.38,0.11,0.66,0.33,0.84
	c0.21,0.17,0.46,0.26,0.73,0.26c0.27,0,0.52-0.09,0.76-0.28c0.23-0.18,0.35-0.46,0.35-0.82v-17.14c0-0.18-0.03-0.34-0.1-0.47
	c-0.06-0.14-0.15-0.25-0.25-0.34c-0.1-0.09-0.21-0.16-0.34-0.2c-0.13-0.05-0.26-0.07-0.39-0.07c-0.27,0-0.52,0.09-0.75,0.27
	c-0.23,0.18-0.35,0.45-0.35,0.81V305.9z M782.79,299.22c0.04-0.58,0.18-1.12,0.39-1.64c0.22-0.52,0.5-0.97,0.86-1.36
	c0.35-0.39,0.77-0.7,1.26-0.93c0.49-0.23,1.03-0.34,1.61-0.34c0.68,0,1.27,0.1,1.79,0.31c0.51,0.2,0.94,0.49,1.29,0.87
	c0.35,0.38,0.63,0.83,0.82,1.36c0.19,0.52,0.31,1.1,0.36,1.73H782.79z M792.87,297.24c-0.26-0.8-0.65-1.5-1.17-2.09
	c-0.52-0.59-1.18-1.05-1.98-1.38c-0.8-0.33-1.75-0.5-2.84-0.5c-1.05,0-1.97,0.19-2.77,0.57c-0.8,0.38-1.47,0.89-2.01,1.54
	c-0.54,0.65-0.95,1.39-1.23,2.24c-0.27,0.85-0.41,1.73-0.41,2.67c0,1.08,0.17,2.06,0.52,2.94c0.35,0.87,0.82,1.61,1.42,2.22
	c0.6,0.61,1.31,1.07,2.11,1.39s1.67,0.48,2.58,0.48c0.43,0,0.88-0.04,1.33-0.11c0.45-0.07,0.9-0.19,1.34-0.34
	c0.44-0.15,0.88-0.36,1.3-0.6c0.42-0.25,0.81-0.55,1.19-0.9c0.11-0.1,0.19-0.2,0.23-0.32c0.04-0.11,0.07-0.22,0.07-0.32
	c0-0.19-0.06-0.35-0.19-0.49c-0.13-0.14-0.29-0.21-0.5-0.21c-0.08,0-0.17,0.02-0.27,0.04c-0.1,0.02-0.19,0.08-0.29,0.15
	c-0.67,0.46-1.34,0.81-2.02,1.05c-0.68,0.24-1.35,0.36-2.01,0.36c-0.62,0-1.2-0.1-1.73-0.31c-0.53-0.2-1.02-0.51-1.45-0.92
	c-0.44-0.4-0.77-0.92-0.99-1.52c-0.22-0.61-0.35-1.35-0.37-2.22h9.7c0.32,0,0.54-0.08,0.67-0.24s0.2-0.34,0.2-0.55
	C793.27,298.92,793.13,298.05,792.87,297.24 M771.14,293.57c-0.29,0-0.51,0.08-0.66,0.25c-0.15,0.17-0.22,0.36-0.22,0.56
	c0,0.21,0.08,0.4,0.22,0.56c0.15,0.17,0.37,0.25,0.66,0.25h1.64v7.49c0,0.87,0.07,1.59,0.21,2.18c0.14,0.59,0.36,1.06,0.65,1.42
	c0.29,0.36,0.66,0.62,1.1,0.78c0.44,0.16,0.97,0.24,1.58,0.24c0.21,0,0.47-0.02,0.77-0.04s0.57-0.08,0.84-0.16
	c0.27-0.08,0.48-0.19,0.64-0.33c0.16-0.14,0.25-0.33,0.25-0.56c0-0.15-0.07-0.31-0.2-0.47c-0.13-0.16-0.33-0.24-0.59-0.24
	c-0.18,0-0.4,0.02-0.66,0.06c-0.26,0.04-0.51,0.06-0.75,0.06c-0.41,0-0.72-0.07-0.95-0.2c-0.23-0.13-0.39-0.36-0.5-0.68
	c-0.11-0.32-0.17-0.74-0.19-1.26c-0.02-0.52-0.02-1.19-0.02-2v-6.29h2.42c0.29,0,0.51-0.08,0.65-0.24c0.15-0.16,0.22-0.35,0.22-0.56
	c0-0.21-0.07-0.4-0.22-0.57c-0.14-0.17-0.36-0.26-0.65-0.26h-2.42v-3.85c0-0.31-0.09-0.53-0.27-0.67c-0.18-0.15-0.38-0.22-0.6-0.22
	c-0.25,0-0.49,0.08-0.71,0.24c-0.22,0.16-0.34,0.39-0.36,0.68l-0.18,3.82H771.14z M762.1,306c0,0.17,0.03,0.32,0.09,0.45
	c0.06,0.13,0.14,0.23,0.24,0.31c0.1,0.08,0.21,0.14,0.34,0.18s0.26,0.06,0.39,0.06c0.28,0,0.54-0.08,0.77-0.25
	c0.23-0.17,0.35-0.42,0.35-0.75v-6.66c0-0.65,0.08-1.23,0.25-1.75c0.17-0.52,0.41-0.96,0.72-1.33c0.31-0.36,0.69-0.64,1.15-0.83
	c0.46-0.19,0.98-0.29,1.57-0.29c0.38,0,0.66-0.1,0.84-0.29c0.18-0.19,0.27-0.4,0.27-0.63c0-0.23-0.09-0.45-0.28-0.65
	c-0.19-0.2-0.45-0.3-0.81-0.3c-0.53,0-0.99,0.06-1.39,0.17c-0.4,0.12-0.75,0.29-1.05,0.5c-0.3,0.22-0.55,0.48-0.76,0.8
	c-0.21,0.31-0.38,0.67-0.52,1.06v-1.21c0-0.33-0.09-0.58-0.27-0.76c-0.18-0.18-0.43-0.27-0.75-0.27c-0.33,0-0.6,0.09-0.82,0.27
	c-0.22,0.18-0.33,0.43-0.33,0.76V306z M755.86,301.62c-0.03,0.69-0.15,1.28-0.36,1.78c-0.21,0.5-0.49,0.9-0.85,1.22
	c-0.35,0.32-0.77,0.56-1.23,0.73c-0.47,0.17-0.97,0.26-1.51,0.27c-0.4-0.01-0.77-0.06-1.13-0.16c-0.36-0.1-0.67-0.25-0.93-0.45
	c-0.26-0.2-0.47-0.44-0.62-0.74c-0.15-0.29-0.23-0.65-0.23-1.07c0-0.52,0.11-0.96,0.34-1.29c0.23-0.34,0.53-0.61,0.9-0.81
	c0.38-0.2,0.8-0.35,1.28-0.44c0.48-0.09,0.98-0.15,1.49-0.17c0.51-0.03,1.01-0.04,1.5-0.04s0.94,0,1.35-0.02V301.62z M755.87,298.85
	c-0.25-0.01-0.51-0.02-0.78-0.03c-0.27-0.01-0.52-0.01-0.75-0.01c-1.12,0-2.14,0.08-3.07,0.23c-0.93,0.15-1.72,0.4-2.38,0.75
	c-0.66,0.35-1.17,0.81-1.54,1.37c-0.37,0.56-0.55,1.26-0.55,2.09c0,0.64,0.12,1.21,0.36,1.71c0.24,0.5,0.57,0.93,0.98,1.28
	c0.42,0.35,0.9,0.61,1.46,0.79c0.56,0.17,1.17,0.27,1.82,0.27c0.46,0,0.92-0.06,1.38-0.16c0.46-0.11,0.88-0.27,1.28-0.48
	c0.39-0.21,0.75-0.46,1.06-0.77c0.31-0.31,0.56-0.66,0.75-1.06v1.25c0,0.32,0.11,0.55,0.32,0.7c0.21,0.15,0.44,0.22,0.7,0.22
	c0.26,0,0.5-0.08,0.73-0.24c0.22-0.16,0.33-0.4,0.33-0.72l0.01-8.17c0-0.81-0.12-1.51-0.36-2.09c-0.24-0.58-0.58-1.06-1.03-1.43
	c-0.45-0.37-0.99-0.65-1.61-0.83c-0.63-0.18-1.34-0.27-2.12-0.27c-1.07,0-2.02,0.13-2.87,0.4c-0.85,0.27-1.56,0.67-2.12,1.21
	c-0.18,0.17-0.27,0.36-0.27,0.57c0,0.21,0.08,0.39,0.23,0.54c0.15,0.15,0.35,0.23,0.57,0.23c0.16,0,0.32-0.04,0.47-0.13
	c0.27-0.16,0.54-0.31,0.81-0.44c0.27-0.13,0.55-0.26,0.86-0.37c0.31-0.12,0.64-0.2,1.01-0.25c0.37-0.05,0.78-0.08,1.24-0.08
	c0.46,0,0.88,0.04,1.26,0.13c0.38,0.09,0.71,0.24,0.98,0.45c0.27,0.21,0.48,0.49,0.63,0.84s0.22,0.79,0.22,1.3V298.85z
	 M734.34,298.22c0.13-0.65,0.36-1.22,0.69-1.7c0.33-0.48,0.77-0.87,1.32-1.15c0.55-0.28,1.25-0.42,2.1-0.42
	c0.76,0.01,1.39,0.17,1.88,0.5c0.5,0.33,0.89,0.75,1.19,1.25c0.3,0.51,0.5,1.08,0.62,1.71c0.12,0.63,0.17,1.25,0.17,1.85
	c0,0.35-0.02,0.76-0.07,1.23c-0.05,0.46-0.14,0.9-0.26,1.29c-0.12,0.4-0.28,0.77-0.48,1.11c-0.19,0.34-0.44,0.64-0.73,0.9
	c-0.29,0.26-0.63,0.46-1.02,0.6c-0.39,0.14-0.84,0.22-1.35,0.22c-0.76,0-1.41-0.15-1.95-0.45c-0.54-0.3-0.98-0.69-1.32-1.19
	c-0.34-0.49-0.59-1.06-0.75-1.68c-0.16-0.63-0.24-1.29-0.24-1.97C734.15,299.57,734.21,298.87,734.34,298.22 M734,294.13
	c-0.16-0.37-0.48-0.55-0.97-0.55c-0.27,0-0.52,0.08-0.74,0.24c-0.22,0.16-0.33,0.41-0.33,0.75v16.57c0,0.33,0.11,0.58,0.34,0.75
	c0.23,0.17,0.48,0.25,0.75,0.25c0.27,0,0.52-0.08,0.75-0.25c0.23-0.17,0.34-0.42,0.34-0.75v-6.36c0.26,0.42,0.58,0.79,0.93,1.1
	c0.36,0.32,0.74,0.59,1.16,0.79c0.42,0.21,0.85,0.36,1.31,0.47c0.46,0.1,0.92,0.16,1.38,0.16c0.98,0,1.83-0.19,2.54-0.58
	s1.31-0.9,1.78-1.54c0.46-0.64,0.81-1.38,1.04-2.22s0.34-1.71,0.34-2.62c0-0.89-0.11-1.77-0.33-2.62c-0.21-0.85-0.55-1.6-1-2.26
	c-0.45-0.66-1.04-1.19-1.75-1.59s-1.56-0.6-2.54-0.6c-0.5,0-1,0.05-1.48,0.15c-0.48,0.1-0.93,0.25-1.35,0.46
	c-0.42,0.21-0.81,0.48-1.15,0.8c-0.35,0.32-0.64,0.7-0.89,1.13C734.21,295.06,734.16,294.49,734,294.13 M717.67,291.19
	c0.27-0.39,0.62-0.71,1.05-0.95c0.43-0.25,0.91-0.42,1.44-0.54c0.53-0.12,1.05-0.17,1.56-0.17c0.5,0,0.98,0.04,1.41,0.13
	c0.43,0.09,0.84,0.21,1.22,0.36c0.38,0.15,0.73,0.33,1.05,0.53c0.32,0.2,0.62,0.41,0.91,0.63c0.33,0.33,0.62,0.49,0.88,0.49
	c0.16,0,0.31-0.03,0.42-0.1c0.12-0.06,0.21-0.14,0.29-0.24c0.08-0.1,0.13-0.2,0.16-0.32c0.03-0.12,0.05-0.23,0.05-0.33
	c0-0.12-0.01-0.23-0.04-0.33c-0.02-0.1-0.07-0.19-0.14-0.27c-0.82-0.88-1.77-1.53-2.82-1.95c-1.06-0.42-2.27-0.64-3.61-0.64
	c-0.88,0-1.72,0.12-2.53,0.34c-0.81,0.23-1.52,0.56-2.14,1c-0.62,0.44-1.11,0.99-1.48,1.63c-0.37,0.64-0.56,1.35-0.56,2.09
	c0,0.77,0.16,1.45,0.48,2.04c0.32,0.59,0.75,1.1,1.29,1.53c0.54,0.42,1.16,0.79,1.86,1.08c0.7,0.3,1.43,0.57,2.18,0.81
	c0.69,0.22,1.36,0.43,2.02,0.64c0.66,0.21,1.25,0.47,1.76,0.77c0.52,0.3,0.93,0.67,1.25,1.11c0.32,0.44,0.48,0.98,0.48,1.63
	c0,0.46-0.12,0.9-0.36,1.3c-0.24,0.41-0.57,0.75-0.98,1.02c-0.42,0.27-0.91,0.48-1.48,0.61c-0.57,0.13-1.19,0.21-1.84,0.21
	c-0.61,0-1.16-0.05-1.66-0.14c-0.5-0.1-0.96-0.22-1.38-0.38c-0.42-0.16-0.8-0.34-1.14-0.54c-0.35-0.2-0.66-0.41-0.95-0.61
	c-0.16-0.12-0.33-0.24-0.49-0.35c-0.17-0.12-0.33-0.18-0.5-0.18c-0.1,0-0.2,0.04-0.3,0.1s-0.19,0.15-0.27,0.26
	c-0.08,0.1-0.15,0.22-0.19,0.35c-0.05,0.13-0.08,0.26-0.08,0.38c0,0.1,0.02,0.2,0.05,0.29s0.08,0.18,0.15,0.25
	c0.35,0.36,0.76,0.69,1.22,1c0.46,0.31,0.97,0.58,1.53,0.81c0.56,0.23,1.17,0.41,1.83,0.54c0.66,0.13,1.36,0.2,2.1,0.2
	c1.03,0,1.99-0.12,2.88-0.36c0.88-0.24,1.65-0.59,2.31-1.06c0.65-0.46,1.16-1.04,1.52-1.71c0.37-0.67,0.55-1.38,0.55-2.14
	c0-0.88-0.16-1.63-0.48-2.23c-0.32-0.6-0.74-1.11-1.27-1.53c-0.54-0.42-1.15-0.77-1.85-1.05c-0.7-0.28-1.43-0.54-2.2-0.79
	c-0.69-0.22-1.37-0.43-2.04-0.65c-0.66-0.21-1.25-0.47-1.77-0.77c-0.52-0.3-0.94-0.66-1.25-1.08c-0.32-0.42-0.48-0.93-0.48-1.51
	C717.26,292,717.4,291.58,717.67,291.19"/>
<path class="st1" d="M897.29,224.01c0,2.24-0.45,3.96-1.36,5.16c-0.9,1.2-2.41,1.81-4.5,1.81c-1.98,0-3.38-0.6-4.19-1.81
	s-1.22-2.92-1.22-5.16v-23.32c0-0.87,0.16-1.64,0.48-2.3s0.74-1.2,1.27-1.63c0.53-0.42,1.13-0.75,1.82-0.99
	c0.69-0.24,1.4-0.35,2.16-0.35c1.84,0,3.22,0.59,4.15,1.77c0.93,1.18,1.4,2.93,1.4,5.26c0.4-2.38,1.36-4.24,2.9-5.59
	s3.5-2.04,5.9-2.04c0.73,0,1.38,0.13,1.94,0.38c0.56,0.25,1.04,0.57,1.41,0.97c0.38,0.4,0.66,0.86,0.85,1.38
	c0.19,0.52,0.28,1.04,0.28,1.56c0,1.51-0.52,2.63-1.57,3.34c-1.05,0.72-2.46,1.13-4.23,1.25c-1.06,0.1-2.04,0.29-2.95,0.6
	c-0.9,0.31-1.69,0.77-2.36,1.37c-0.67,0.6-1.2,1.36-1.59,2.31c-0.39,0.94-0.58,2.09-0.58,3.46V224.01z"/>
<line class="st2" x1="714.46" y1="263.16" x2="1156.92" y2="263.16"/>
<path class="st0" d="M65.36,139.75l13.68-17.92c1.04-1.36,2.05-2.47,3.04-3.32c0.99-0.85,2.13-1.27,3.43-1.27
	c0.73,0,1.45,0.13,2.15,0.4s1.34,0.65,1.91,1.15c0.56,0.49,1.02,1.07,1.38,1.73c0.35,0.66,0.53,1.38,0.53,2.15
	c0,0.47-0.11,0.96-0.32,1.47c-0.21,0.51-0.48,1.01-0.8,1.52c-0.32,0.5-0.68,1.01-1.1,1.52c-0.41,0.5-0.81,0.98-1.18,1.43
	l-10.57,12.34l12.3,15.44c0.4,0.49,0.8,1.02,1.2,1.57c0.4,0.56,0.77,1.11,1.1,1.66c0.33,0.55,0.6,1.1,0.81,1.62
	c0.21,0.53,0.32,1.04,0.32,1.54c0,0.78-0.18,1.51-0.55,2.21c-0.37,0.69-0.84,1.31-1.43,1.84c-0.59,0.53-1.25,0.95-2,1.25
	s-1.48,0.46-2.21,0.46c-0.85,0-1.63-0.19-2.36-0.57c-0.73-0.38-1.42-0.86-2.07-1.45c-0.65-0.59-1.25-1.24-1.81-1.94
	c-0.55-0.71-1.08-1.4-1.57-2.08l-13.89-18.83l0.07,17.99c0,0.96-0.17,1.86-0.51,2.7c-0.35,0.84-0.81,1.57-1.42,2.19
	c-0.6,0.63-1.29,1.11-2.08,1.47c-0.79,0.35-1.64,0.53-2.56,0.53c-0.92,0-1.77-0.18-2.56-0.53c-0.79-0.35-1.48-0.84-2.07-1.47
	c-0.59-0.62-1.06-1.35-1.4-2.19c-0.34-0.84-0.51-1.74-0.51-2.7V124.1c0-0.96,0.17-1.86,0.51-2.7c0.34-0.84,0.81-1.57,1.4-2.19
	c0.59-0.62,1.28-1.11,2.07-1.47c0.79-0.35,1.64-0.53,2.56-0.53c0.87,0,1.71,0.17,2.51,0.53c0.8,0.35,1.5,0.85,2.1,1.47
	c0.6,0.62,1.08,1.35,1.43,2.19c0.35,0.84,0.53,1.74,0.53,2.7L65.36,139.75z"/>
<path class="st0" d="M154.3,129.58c-2.1,5.18-3.97,9.8-5.62,13.85c-0.71,1.75-1.39,3.44-2.05,5.09c-0.66,1.65-1.25,3.12-1.79,4.42
	c-0.53,1.3-0.96,2.34-1.29,3.15l-0.46,1.17c-0.5,1.2-1.02,2.34-1.58,3.43c-0.55,1.08-1.18,2.03-1.89,2.84
	c-0.71,0.81-1.5,1.46-2.38,1.94c-0.88,0.48-1.9,0.73-3.06,0.73c-1.06,0-1.99-0.18-2.79-0.55c-0.8-0.37-1.54-0.92-2.21-1.66
	c-0.67-0.74-1.3-1.67-1.89-2.79c-0.59-1.12-1.17-2.42-1.77-3.9l-11.13-27.56v33.71c0,0.71-0.13,1.38-0.41,2.02
	c-0.27,0.63-0.64,1.18-1.11,1.64c-0.47,0.46-1.02,0.83-1.66,1.1c-0.63,0.27-1.31,0.41-2.02,0.41c-0.71,0-1.38-0.14-2.01-0.41
	s-1.19-0.63-1.64-1.1c-0.46-0.46-0.83-1.01-1.1-1.64c-0.27-0.63-0.41-1.31-0.41-2.02v-32.61c0-2.05,0.11-3.92,0.32-5.6
	c0.21-1.68,0.64-3.11,1.29-4.29c0.65-1.18,1.56-2.09,2.72-2.74c1.17-0.65,2.71-0.97,4.61-0.97c1.36,0,2.56,0.23,3.58,0.71
	c1.03,0.47,1.98,1.23,2.86,2.28c0.88,1.05,1.74,2.41,2.58,4.08c0.84,1.67,1.75,3.7,2.74,6.08l9.43,22.79h0.29l9.54-22.79
	c0.85-2.03,1.68-3.85,2.49-5.48c0.81-1.62,1.68-3,2.6-4.13c0.92-1.13,1.92-2,3-2.61c1.08-0.61,2.32-0.92,3.71-0.92
	c1.51,0,2.82,0.22,3.94,0.67s2.04,1.17,2.76,2.15c0.72,0.99,1.25,2.27,1.61,3.84c0.35,1.57,0.53,3.46,0.53,5.67v33.89
	c0,0.71-0.13,1.38-0.4,2.02s-0.64,1.18-1.11,1.64c-0.47,0.46-1.02,0.83-1.66,1.1s-1.31,0.41-2.02,0.41c-0.71,0-1.38-0.14-2.01-0.41
	c-0.64-0.27-1.19-0.63-1.65-1.1c-0.46-0.46-0.82-1.01-1.1-1.64c-0.27-0.63-0.4-1.31-0.4-2.02V129.58z"/>
<path class="st0" d="M187.59,142.93c0,5.84,0.93,10.25,2.79,13.23c1.86,2.98,4.77,4.47,8.73,4.47c3.89,0,6.78-1.48,8.69-4.45
	c1.91-2.97,2.86-7.39,2.86-13.25c0-2.83-0.23-5.34-0.69-7.54c-0.46-2.21-1.16-4.06-2.1-5.57c-0.94-1.51-2.14-2.66-3.59-3.45
	c-1.45-0.79-3.17-1.18-5.18-1.18c-1.98,0-3.69,0.4-5.14,1.18c-1.45,0.79-2.64,1.94-3.59,3.45c-0.94,1.51-1.64,3.36-2.1,5.57
	C187.82,137.59,187.59,140.1,187.59,142.93 M173.85,142.93c0-3.89,0.52-7.48,1.57-10.78c1.05-3.3,2.62-6.14,4.72-8.52
	c2.1-2.38,4.73-4.24,7.88-5.58c3.16-1.34,6.86-2.02,11.1-2.02c4.12,0,7.76,0.65,10.92,1.94c3.16,1.3,5.8,3.13,7.92,5.5
	c2.12,2.37,3.72,5.2,4.8,8.5c1.08,3.3,1.63,6.95,1.63,10.95c0,3.94-0.53,7.55-1.59,10.85s-2.65,6.13-4.77,8.5
	c-2.12,2.37-4.76,4.21-7.92,5.53c-3.16,1.32-6.82,1.98-10.99,1.98c-4.07,0-7.69-0.64-10.83-1.91c-3.14-1.27-5.79-3.08-7.93-5.42
	c-2.14-2.34-3.77-5.17-4.86-8.46C174.39,150.69,173.85,147.01,173.85,142.93"/>
<path class="st1" d="M63.79,223.38c0,2.24-0.45,3.96-1.36,5.16c-0.91,1.2-2.41,1.81-4.51,1.81c-1.98,0-3.37-0.6-4.19-1.81
	s-1.22-2.92-1.22-5.16l-0.04-22.15h-1.77c-0.64,0-1.24-0.05-1.81-0.15c-0.56-0.11-1.05-0.29-1.46-0.55c-0.41-0.26-0.74-0.59-0.99-1
	c-0.25-0.41-0.37-0.94-0.37-1.58c0-0.89,0.34-1.66,1.02-2.31c0.68-0.65,1.73-0.98,3.15-0.98h2.23v-2.26c0-2.47,0.24-4.58,0.72-6.34
	c0.48-1.75,1.22-3.21,2.21-4.33c0.99-1.13,2.25-1.96,3.77-2.48c1.52-0.52,3.32-0.78,5.42-0.78c1.08,0,2.15,0.05,3.2,0.13
	c1.05,0.08,1.99,0.26,2.82,0.54c0.84,0.29,1.52,0.71,2.03,1.27c0.52,0.56,0.78,1.33,0.78,2.3c0,1.06-0.32,1.91-0.95,2.54
	c-0.63,0.63-1.54,0.96-2.72,0.96c-0.28,0-0.56,0-0.85-0.01c-0.28-0.01-0.55-0.02-0.81-0.02c-0.89,0-1.62,0.12-2.17,0.34
	c-0.56,0.22-0.99,0.61-1.31,1.18c-0.32,0.56-0.54,1.34-0.65,2.32c-0.12,0.98-0.17,2.22-0.17,3.73v0.92h3.39
	c0.52,0,1.02,0.07,1.52,0.2c0.5,0.13,0.93,0.32,1.31,0.58c0.38,0.26,0.69,0.6,0.92,1.01c0.23,0.41,0.35,0.91,0.35,1.5
	c0,1.11-0.39,1.93-1.18,2.48c-0.79,0.54-1.9,0.81-3.34,0.81h-2.97V223.38z"/>
<path class="st1" d="M96.27,213.88c-1.6-0.05-3.19-0.02-4.77,0.07c-1.58,0.1-2.99,0.35-4.24,0.77c-1.25,0.41-2.25,1.01-3.02,1.81
	c-0.76,0.8-1.15,1.88-1.15,3.25c0,0.75,0.14,1.44,0.42,2.05c0.28,0.61,0.68,1.14,1.18,1.59c0.51,0.45,1.11,0.79,1.81,1.02
	c0.69,0.23,1.46,0.35,2.31,0.35c1.08,0,2.08-0.19,2.98-0.58c0.91-0.39,1.69-0.96,2.35-1.7c0.66-0.74,1.18-1.65,1.56-2.72
	c0.38-1.07,0.56-2.31,0.56-3.7V213.88z M96.3,207.09c0-1.98-0.52-3.38-1.57-4.21c-1.05-0.83-2.46-1.24-4.23-1.24
	c-1.06,0-2.05,0.06-2.97,0.18c-0.92,0.12-1.78,0.27-2.59,0.45c-0.81,0.17-1.59,0.35-2.32,0.54c-0.73,0.19-1.42,0.37-2.08,0.53
	c-0.54,0.14-1.02,0.21-1.45,0.21c-0.78,0-1.48-0.25-2.1-0.75c-0.63-0.5-0.94-1.21-0.94-2.11c0-0.87,0.22-1.64,0.67-2.3
	c0.45-0.66,1.06-1.23,1.82-1.71c0.77-0.48,1.65-0.88,2.67-1.2c1.01-0.32,2.08-0.58,3.2-0.77c1.12-0.19,2.27-0.32,3.44-0.4
	c1.18-0.08,2.31-0.13,3.39-0.13c2.26,0,4.34,0.26,6.22,0.77c1.88,0.51,3.5,1.35,4.86,2.52c1.36,1.17,2.42,2.72,3.18,4.63
	c0.77,1.91,1.15,4.25,1.15,7.03v14.13c0,0.92-0.06,1.8-0.17,2.65s-0.35,1.6-0.71,2.26c-0.35,0.66-0.86,1.19-1.52,1.58
	c-0.66,0.39-1.53,0.58-2.61,0.58c-1.7,0-2.95-0.55-3.77-1.67c-0.81-1.12-1.22-2.72-1.22-4.8c-0.61,1.2-1.36,2.24-2.25,3.11
	c-0.88,0.87-1.85,1.59-2.91,2.15c-1.06,0.55-2.19,0.96-3.38,1.23c-1.19,0.27-2.4,0.4-3.62,0.4c-1.65,0-3.18-0.23-4.59-0.72
	c-1.41-0.48-2.63-1.17-3.65-2.05c-1.03-0.88-1.83-1.94-2.4-3.18c-0.58-1.24-0.86-2.63-0.86-4.16c0-2.14,0.45-3.98,1.34-5.51
	c0.9-1.53,2.2-2.78,3.9-3.75c1.71-0.97,3.79-1.67,6.26-2.12c2.46-0.45,5.27-0.67,8.43-0.67h3.39V207.09z"/>
<path class="st1" d="M113.37,212.43c0-2.66,0.48-5.11,1.45-7.35c0.97-2.24,2.29-4.17,3.98-5.79c1.69-1.63,3.67-2.89,5.97-3.79
	c2.3-0.91,4.79-1.36,7.47-1.36c1.41,0,2.83,0.12,4.26,0.35c1.42,0.23,2.71,0.6,3.85,1.1c1.14,0.49,2.08,1.13,2.79,1.9
	c0.72,0.77,1.08,1.67,1.08,2.73c0,1.04-0.34,1.86-1.01,2.48c-0.67,0.61-1.52,0.92-2.56,0.92c-0.54,0-1.11-0.06-1.7-0.17
	c-0.59-0.12-1.19-0.23-1.82-0.37c-0.62-0.13-1.24-0.26-1.85-0.38c-0.61-0.12-1.2-0.18-1.77-0.18c-1.2,0-2.33,0.21-3.39,0.63
	c-1.06,0.41-1.98,1.02-2.76,1.85c-0.78,0.83-1.4,1.85-1.86,3.07c-0.46,1.22-0.69,2.66-0.69,4.31c0,1.32,0.17,2.58,0.53,3.78
	c0.35,1.2,0.89,2.26,1.61,3.17c0.72,0.9,1.63,1.62,2.72,2.17c1.1,0.54,2.38,0.81,3.87,0.81c0.59,0,1.22-0.06,1.89-0.18
	c0.67-0.12,1.34-0.25,2-0.4c0.66-0.15,1.31-0.29,1.96-0.41c0.65-0.12,1.26-0.17,1.82-0.17c0.99,0,1.82,0.31,2.49,0.91
	c0.67,0.6,1.01,1.39,1.01,2.38c0,1.02-0.37,1.92-1.1,2.71s-1.7,1.45-2.9,1.99c-1.2,0.54-2.57,0.95-4.11,1.24
	c-1.54,0.28-3.13,0.42-4.75,0.42c-2.33,0-4.61-0.38-6.84-1.14c-2.23-0.77-4.2-1.91-5.92-3.43c-1.72-1.52-3.11-3.42-4.15-5.72
	S113.37,215.49,113.37,212.43"/>
<path class="st1" d="M154.75,194.65l0.78-7.32c0.07-0.71,0.19-1.41,0.37-2.12c0.18-0.71,0.46-1.35,0.85-1.94
	c0.39-0.59,0.91-1.06,1.58-1.42c0.66-0.37,1.52-0.56,2.58-0.56c1.55,0,2.68,0.54,3.37,1.63c0.69,1.08,1.04,2.7,1.04,4.84v6.89h3.96
	c1.2,0,2.18,0.31,2.94,0.91c0.75,0.6,1.13,1.54,1.13,2.84c0,1.2-0.4,2.11-1.2,2.71c-0.8,0.6-1.88,0.9-3.25,0.9h-3.57v13.35
	c0,1.41,0.02,2.61,0.07,3.61c0.05,0.99,0.2,1.8,0.46,2.42c0.26,0.62,0.65,1.07,1.17,1.35c0.52,0.27,1.26,0.4,2.22,0.4
	c0.69,0,1.35,0.04,2,0.1c0.65,0.06,1.22,0.2,1.71,0.44c0.49,0.23,0.89,0.59,1.18,1.05c0.29,0.46,0.44,1.08,0.44,1.88
	c0,0.9-0.22,1.61-0.67,2.16c-0.45,0.54-1.09,0.96-1.92,1.26c-0.84,0.29-1.84,0.5-3,0.6c-1.17,0.1-2.47,0.15-3.9,0.15
	c-1.65-0.02-3.15-0.27-4.51-0.74c-1.35-0.47-2.52-1.21-3.5-2.24c-0.98-1.02-1.73-2.36-2.26-3.99c-0.53-1.64-0.79-3.65-0.79-6.03
	v-15.76h-1.63c-1.27,0-2.33-0.3-3.18-0.9c-0.85-0.6-1.27-1.58-1.27-2.92c0-1.06,0.34-1.91,1.01-2.56c0.67-0.65,1.69-0.98,3.06-0.98
	H154.75z"/>
<path class="st1" d="M189.13,217.23c0,1.11,0.15,2.07,0.44,2.9s0.7,1.52,1.22,2.08c0.52,0.55,1.12,0.96,1.82,1.23
	c0.7,0.27,1.44,0.4,2.25,0.4c0.94,0,1.85-0.14,2.72-0.42c0.87-0.29,1.64-0.72,2.31-1.31s1.21-1.33,1.61-2.23
	c0.4-0.9,0.6-1.94,0.6-3.15v-14.98c0-2.24,0.4-3.96,1.22-5.16s2.21-1.81,4.19-1.81c2.1,0,3.6,0.6,4.51,1.81
	c0.9,1.2,1.36,2.92,1.36,5.16v21.63c0,2.24-0.46,3.96-1.36,5.16c-0.91,1.2-2.41,1.8-4.51,1.8c-1.98,0-3.37-0.6-4.19-1.8
	s-1.22-2.92-1.22-5.16c-0.5,1.08-1.14,2.07-1.93,2.97c-0.79,0.89-1.71,1.67-2.75,2.32c-1.05,0.65-2.2,1.14-3.46,1.5
	s-2.62,0.53-4.08,0.53c-1.58,0-3.09-0.27-4.54-0.83c-1.45-0.55-2.73-1.38-3.84-2.47c-1.11-1.1-1.99-2.46-2.65-4.09
	c-0.66-1.63-0.99-3.52-0.99-5.69v-15.87c0-2.24,0.4-3.96,1.22-5.16s2.21-1.81,4.19-1.81c2.09,0,3.6,0.6,4.5,1.81
	c0.91,1.2,1.36,2.92,1.36,5.16V217.23z"/>
<path class="st1" d="M232.88,223.38c0,2.24-0.45,3.96-1.36,5.16c-0.9,1.2-2.41,1.81-4.5,1.81c-1.98,0-3.38-0.6-4.19-1.81
	s-1.22-2.92-1.22-5.16v-23.32c0-0.87,0.16-1.64,0.48-2.3c0.32-0.66,0.74-1.2,1.27-1.63c0.53-0.42,1.13-0.75,1.82-0.99
	c0.69-0.24,1.4-0.35,2.16-0.35c1.84,0,3.22,0.59,4.15,1.77c0.93,1.18,1.4,2.93,1.4,5.26c0.4-2.38,1.36-4.24,2.9-5.59
	c1.53-1.35,3.5-2.04,5.9-2.04c0.73,0,1.38,0.13,1.94,0.38c0.56,0.25,1.04,0.57,1.41,0.97c0.38,0.4,0.66,0.86,0.85,1.38
	c0.19,0.52,0.28,1.04,0.28,1.56c0,1.51-0.52,2.63-1.57,3.34c-1.05,0.72-2.46,1.13-4.23,1.25c-1.06,0.1-2.04,0.29-2.95,0.6
	c-0.9,0.31-1.69,0.77-2.36,1.37c-0.67,0.6-1.2,1.36-1.59,2.31c-0.39,0.94-0.58,2.09-0.58,3.46V223.38z"/>
<path class="st1" d="M271.71,213.88c-1.6-0.05-3.19-0.02-4.77,0.07c-1.58,0.1-2.99,0.35-4.24,0.77s-2.25,1.01-3.02,1.81
	c-0.77,0.8-1.15,1.88-1.15,3.25c0,0.75,0.14,1.44,0.42,2.05c0.28,0.61,0.68,1.14,1.18,1.59c0.51,0.45,1.11,0.79,1.81,1.02
	c0.69,0.23,1.46,0.35,2.31,0.35c1.08,0,2.08-0.19,2.99-0.58c0.9-0.39,1.69-0.96,2.35-1.7c0.66-0.74,1.18-1.65,1.56-2.72
	c0.38-1.07,0.56-2.31,0.56-3.7V213.88z M271.75,207.09c0-1.98-0.52-3.38-1.57-4.21c-1.05-0.83-2.46-1.24-4.23-1.24
	c-1.06,0-2.05,0.06-2.97,0.18c-0.92,0.12-1.78,0.27-2.59,0.45c-0.81,0.17-1.59,0.35-2.32,0.54c-0.73,0.19-1.42,0.37-2.08,0.53
	c-0.54,0.14-1.02,0.21-1.45,0.21c-0.78,0-1.48-0.25-2.1-0.75c-0.63-0.5-0.94-1.21-0.94-2.11c0-0.87,0.22-1.64,0.67-2.3
	s1.06-1.23,1.82-1.71c0.77-0.48,1.65-0.88,2.67-1.2c1.01-0.32,2.08-0.58,3.2-0.77c1.12-0.19,2.27-0.32,3.44-0.4
	c1.18-0.08,2.31-0.13,3.39-0.13c2.26,0,4.34,0.26,6.22,0.77c1.88,0.51,3.5,1.35,4.86,2.52c1.35,1.17,2.41,2.72,3.18,4.63
	c0.77,1.91,1.15,4.25,1.15,7.03v14.13c0,0.92-0.06,1.8-0.18,2.65s-0.35,1.6-0.71,2.26s-0.86,1.19-1.52,1.58s-1.53,0.58-2.61,0.58
	c-1.7,0-2.95-0.55-3.77-1.67c-0.81-1.12-1.22-2.72-1.22-4.8c-0.61,1.2-1.36,2.24-2.24,3.11c-0.88,0.87-1.86,1.59-2.92,2.15
	c-1.06,0.55-2.19,0.96-3.38,1.23c-1.19,0.27-2.4,0.4-3.62,0.4c-1.65,0-3.18-0.23-4.59-0.72c-1.41-0.48-2.63-1.17-3.65-2.05
	c-1.03-0.88-1.83-1.94-2.4-3.18c-0.58-1.24-0.86-2.63-0.86-4.16c0-2.14,0.45-3.98,1.34-5.51c0.9-1.53,2.2-2.78,3.9-3.75
	c1.71-0.97,3.79-1.67,6.26-2.12c2.46-0.45,5.27-0.67,8.43-0.67h3.39V207.09z"/>
<path class="st1" d="M293.76,194.65l0.78-7.32c0.07-0.71,0.19-1.41,0.37-2.12c0.18-0.71,0.46-1.35,0.85-1.94
	c0.39-0.59,0.91-1.06,1.58-1.42c0.66-0.37,1.52-0.56,2.58-0.56c1.56,0,2.68,0.54,3.37,1.63s1.04,2.7,1.04,4.84v6.89h3.96
	c1.2,0,2.18,0.31,2.94,0.91c0.75,0.6,1.13,1.54,1.13,2.84c0,1.2-0.4,2.11-1.2,2.71c-0.8,0.6-1.88,0.9-3.25,0.9h-3.57v13.35
	c0,1.41,0.02,2.61,0.07,3.61c0.05,0.99,0.2,1.8,0.46,2.42c0.26,0.62,0.65,1.07,1.16,1.35c0.52,0.27,1.26,0.4,2.23,0.4
	c0.68,0,1.35,0.04,2,0.1c0.65,0.06,1.22,0.2,1.71,0.44c0.49,0.23,0.89,0.59,1.18,1.05c0.29,0.46,0.44,1.08,0.44,1.88
	c0,0.9-0.22,1.61-0.67,2.16c-0.45,0.54-1.09,0.96-1.92,1.26c-0.84,0.29-1.84,0.5-3,0.6c-1.17,0.1-2.47,0.15-3.9,0.15
	c-1.65-0.02-3.15-0.27-4.51-0.74c-1.35-0.47-2.52-1.21-3.5-2.24c-0.98-1.02-1.73-2.36-2.26-3.99c-0.53-1.64-0.79-3.65-0.79-6.03
	v-15.76h-1.63c-1.27,0-2.33-0.3-3.18-0.9c-0.85-0.6-1.27-1.58-1.27-2.92c0-1.06,0.34-1.91,1.01-2.56c0.67-0.65,1.69-0.98,3.06-0.98
	H293.76z"/>
<path class="st1" d="M329.41,223.38c0,2.24-0.45,3.96-1.36,5.16c-0.9,1.2-2.41,1.8-4.5,1.8c-1.98,0-3.38-0.6-4.19-1.8
	c-0.81-1.2-1.22-2.92-1.22-5.16v-21.63c0-2.24,0.41-3.96,1.22-5.16c0.81-1.2,2.21-1.8,4.19-1.8c2.09,0,3.6,0.6,4.5,1.8
	c0.91,1.2,1.36,2.92,1.36,5.16V223.38z M329.95,182.22c0,0.78-0.18,1.47-0.53,2.08c-0.35,0.6-0.81,1.1-1.38,1.5
	c-0.56,0.4-1.22,0.71-1.96,0.9c-0.74,0.2-1.5,0.29-2.28,0.29c-0.83,0-1.61-0.1-2.35-0.32c-0.74-0.21-1.4-0.52-1.96-0.93
	c-0.57-0.41-1.02-0.92-1.35-1.51c-0.33-0.59-0.49-1.26-0.49-2.02c0-0.68,0.16-1.31,0.48-1.88c0.32-0.58,0.75-1.08,1.29-1.51
	c0.54-0.42,1.19-0.75,1.94-0.99c0.75-0.24,1.58-0.35,2.47-0.35c0.78,0,1.54,0.1,2.28,0.32c0.74,0.21,1.39,0.52,1.96,0.92
	c0.56,0.4,1.02,0.9,1.36,1.48C329.78,180.79,329.95,181.46,329.95,182.22"/>
<path class="st1" d="M363.37,209.25c-0.07-1.25-0.29-2.4-0.65-3.46c-0.36-1.06-0.88-1.98-1.56-2.76c-0.67-0.78-1.5-1.38-2.47-1.81
	c-0.98-0.44-2.11-0.66-3.41-0.66c-1.18,0-2.25,0.23-3.2,0.69c-0.95,0.46-1.78,1.08-2.47,1.87c-0.69,0.79-1.24,1.71-1.63,2.76
	c-0.39,1.05-0.61,2.17-0.69,3.37H363.37z M372.81,211.4c0,0.96-0.32,1.69-0.95,2.15c-0.64,0.47-1.52,0.71-2.65,0.71h-21.87
	c0.12,2.85,0.94,5.07,2.46,6.63c1.52,1.57,3.83,2.34,6.94,2.34c1.01,0,1.96-0.06,2.84-0.19c0.88-0.13,1.75-0.31,2.59-0.53
	c0.85-0.22,1.7-0.48,2.54-0.77c0.85-0.28,1.73-0.58,2.65-0.88c0.31-0.12,0.58-0.18,0.81-0.18c0.78,0,1.4,0.31,1.87,0.91
	c0.47,0.6,0.71,1.29,0.71,2.09c0,0.47-0.08,0.92-0.25,1.35c-0.47,1.13-1.25,2.07-2.33,2.81c-1.08,0.74-2.33,1.33-3.75,1.77
	c-1.41,0.44-2.91,0.73-4.49,0.89c-1.58,0.17-3.09,0.25-4.52,0.25c-2.71,0-5.23-0.39-7.58-1.17c-2.34-0.78-4.38-1.93-6.1-3.46
	c-1.72-1.53-3.07-3.45-4.04-5.76c-0.98-2.31-1.47-4.98-1.47-8.02c0-2.54,0.47-4.92,1.41-7.14c0.94-2.21,2.26-4.13,3.94-5.76
	c1.69-1.63,3.69-2.91,6.01-3.85c2.32-0.94,4.87-1.41,7.65-1.41c3.02,0,5.62,0.47,7.81,1.4c2.19,0.93,4,2.18,5.44,3.75
	c1.44,1.57,2.51,3.39,3.21,5.48C372.42,206.9,372.79,209.09,372.81,211.4"/>
<path class="st0" d="M239.39,141.46c6.74,18.46,23.4,25.9,38.43,25.09c15.03-0.81,26.26-11.07,36.19-15.33
	C265.05,157.54,232.65,123,239.39,141.46"/>
<path class="st0" d="M285.55,120.66c-4.72-8.57-13.99-17.79-23.17-15.81c-7.38,1.59-9.81,11.62,0.46,17.38
	c16.17,9.06,22.52,22.42,51.17,29C314,151.22,293.97,135.95,285.55,120.66"/>
<path class="st0" d="M411.83,183.21c16.33,2.92,27.67-9.38,38.68-27.48C450.5,155.73,395.49,180.29,411.83,183.21"/>
<path class="st0" d="M488.94,42.13c-0.78,1.62-0.84,3.49-0.42,6.11c-2.4-1.14-3.61-4.58-2.33-7.34c1.29-2.71,3.94-4.07,6.52-4.13
	C491.16,38.92,489.62,40.42,488.94,42.13 M526.47,40.67c-0.73-1.5-3.02,15.37-26.67,22.13c22.67-12.25,18.18-35.67,15.82-37.62
	c-13.39-11.1-35.66-8.45-47.24,6.24c-20.07,25.49-3.57,87.89-83.72,117.48c-26.41,9.75-70.66,2.33-70.66,2.33
	s26.33,14.33,63.73,16.29c82.83,4.34,142.08-60.03,151.65-103.4C530.78,57.79,530.42,48.82,526.47,40.67"/>
</svg>
